<mxfile host="Electron" agent="Mozilla/5.0 (Windows NT 10.0; Win64; x64) AppleWebKit/537.36 (KHTML, like Gecko) draw.io/28.0.6 Chrome/138.0.7204.100 Electron/37.2.3 Safari/537.36" version="28.0.6">
  <diagram id="tWU5puWIN06RhKpqJLHu" name="Page-1">
    <mxGraphModel dx="713" dy="421" grid="1" gridSize="10" guides="1" tooltips="1" connect="1" arrows="1" fold="1" page="1" pageScale="1" pageWidth="850" pageHeight="1100" background="#FFFFFF" math="0" shadow="0">
      <root>
        <mxCell id="0" />
        <mxCell id="1" parent="0" />
        <mxCell id="jFx5EPhQtyYXcDB8w5p0-1" value="" style="rounded=0;whiteSpace=wrap;html=1;strokeColor=none;fontFamily=Droid Serif;fontSize=16;spacing=0;" vertex="1" parent="1">
          <mxGeometry width="1010" height="1410" as="geometry" />
        </mxCell>
        <mxCell id="kTdM7H5HjzrdZ_Y5N3dL-226" value="Twilight Imperium 4th Edition Rules Summary" style="text;html=1;align=center;verticalAlign=middle;whiteSpace=wrap;rounded=0;fontFamily=Droid Serif;fontSource=https%3A%2F%2Ffonts.googleapis.com%2Fcss%3Ffamily%3DDroid%2BSerif;fontSize=30;spacing=0;fontStyle=1;fontColor=#000000;" parent="1" vertex="1">
          <mxGeometry x="10" y="10" width="990" height="50" as="geometry" />
        </mxCell>
        <mxCell id="kTdM7H5HjzrdZ_Y5N3dL-228" value="" style="endArrow=none;html=1;strokeWidth=2;fontFamily=Droid Serif;fontSource=https%3A%2F%2Ffonts.googleapis.com%2Fcss%3Ffamily%3DDroid%2BSerif;fontSize=30;fontColor=#000000;exitX=0;exitY=1;exitDx=0;exitDy=0;entryX=1;entryY=1;entryDx=0;entryDy=0;strokeColor=#000000;labelBackgroundColor=#000000;" parent="1" source="kTdM7H5HjzrdZ_Y5N3dL-226" target="kTdM7H5HjzrdZ_Y5N3dL-226" edge="1">
          <mxGeometry width="50" height="50" relative="1" as="geometry">
            <mxPoint x="620" y="120" as="sourcePoint" />
            <mxPoint x="2543" y="70" as="targetPoint" />
          </mxGeometry>
        </mxCell>
        <mxCell id="csSF8z3QhMjriFva3N_5-1" value="Game Setup" style="rounded=0;whiteSpace=wrap;html=1;fontSize=20;spacing=0;spacingLeft=5;spacingRight=5;fontStyle=0;fontFamily=Droid Serif;fontSource=https%3A%2F%2Ffonts.googleapis.com%2Fcss%3Ffamily%3DDroid%2BSerif;align=center;fillColor=#f5f5f5;fontColor=#000000;strokeColor=#666666;" parent="1" vertex="1">
          <mxGeometry x="10" y="70" width="310" height="30" as="geometry" />
        </mxCell>
        <mxCell id="csSF8z3QhMjriFva3N_5-2" value="1. Decide on a 10 or 14-point game.&lt;div style=&quot;font-size: 15px;&quot;&gt;2. Decide on a galaxy layout.&lt;/div&gt;&lt;div style=&quot;font-size: 15px;&quot;&gt;3. Randomly determine player seating.&lt;/div&gt;&lt;div style=&quot;font-size: 15px;&quot;&gt;4. Randomly determine the first Speaker.&lt;/div&gt;&lt;div style=&quot;font-size: 15px;&quot;&gt;5. Choose factions.&lt;/div&gt;&lt;div style=&quot;font-size: 15px;&quot;&gt;6. Create the galaxy.&lt;/div&gt;&lt;div style=&quot;font-size: 15px;&quot;&gt;7.&amp;nbsp;Gain starting units, technologies,&lt;/div&gt;&lt;div style=&quot;font-size: 15px;&quot;&gt;&amp;nbsp; &amp;nbsp; tokens, and other cards.&lt;/div&gt;&lt;div style=&quot;font-size: 15px;&quot;&gt;8.&amp;nbsp;Randomly distribute 2 secret objectives&lt;/div&gt;&lt;div style=&quot;font-size: 15px;&quot;&gt;&amp;nbsp; &amp;nbsp; to each player, and each player chooses&lt;/div&gt;&lt;div style=&quot;font-size: 15px;&quot;&gt;&amp;nbsp; &amp;nbsp; 1 to keep.&lt;/div&gt;&lt;div style=&quot;font-size: 15px;&quot;&gt;9. Reveal 2 stage I public objectives.&lt;/div&gt;" style="rounded=0;whiteSpace=wrap;html=1;fontSize=15;align=left;verticalAlign=middle;spacing=0;spacingLeft=5;spacingRight=5;fontFamily=Droid Serif;fontSource=https%3A%2F%2Ffonts.googleapis.com%2Fcss%3Ffamily%3DDroid%2BSerif;fillColor=#f5f5f5;fontColor=#000000;strokeColor=#666666;" parent="1" vertex="1">
          <mxGeometry x="10" y="100" width="310" height="240" as="geometry" />
        </mxCell>
        <mxCell id="csSF8z3QhMjriFva3N_5-5" value="Tactical Action" style="rounded=0;whiteSpace=wrap;html=1;fontSize=20;spacing=0;spacingLeft=5;spacingRight=5;fontStyle=0;fontFamily=Droid Serif;fontSource=https%3A%2F%2Ffonts.googleapis.com%2Fcss%3Ffamily%3DDroid%2BSerif;align=center;fillColor=#f5f5f5;fontColor=#000000;strokeColor=#666666;" parent="1" vertex="1">
          <mxGeometry x="350" y="70" width="310" height="30" as="geometry" />
        </mxCell>
        <mxCell id="csSF8z3QhMjriFva3N_5-6" value="Agenda Phase" style="rounded=0;whiteSpace=wrap;html=1;fontSize=20;spacing=0;spacingLeft=5;spacingRight=5;fontStyle=0;fontFamily=Droid Serif;fontSource=https%3A%2F%2Ffonts.googleapis.com%2Fcss%3Ffamily%3DDroid%2BSerif;align=center;fillColor=#f5f5f5;fontColor=#000000;strokeColor=#666666;" parent="1" vertex="1">
          <mxGeometry x="690" y="70" width="310" height="30" as="geometry" />
        </mxCell>
        <mxCell id="csSF8z3QhMjriFva3N_5-7" value="Creating the Galaxy" style="rounded=0;whiteSpace=wrap;html=1;fontSize=20;spacing=0;spacingLeft=5;spacingRight=5;fontStyle=0;fontFamily=Droid Serif;fontSource=https%3A%2F%2Ffonts.googleapis.com%2Fcss%3Ffamily%3DDroid%2BSerif;align=center;fillColor=#f5f5f5;fontColor=#000000;strokeColor=#666666;" parent="1" vertex="1">
          <mxGeometry x="10" y="360" width="310" height="30" as="geometry" />
        </mxCell>
        <mxCell id="csSF8z3QhMjriFva3N_5-9" value="Game Round" style="rounded=0;whiteSpace=wrap;html=1;fontSize=20;spacing=0;spacingLeft=5;spacingRight=5;fontStyle=0;fontFamily=Droid Serif;fontSource=https%3A%2F%2Ffonts.googleapis.com%2Fcss%3Ffamily%3DDroid%2BSerif;align=center;fillColor=#f5f5f5;fontColor=#000000;strokeColor=#666666;" parent="1" vertex="1">
          <mxGeometry x="10" y="810" width="310" height="30" as="geometry" />
        </mxCell>
        <mxCell id="csSF8z3QhMjriFva3N_5-11" value="Strategy Phase" style="rounded=0;whiteSpace=wrap;html=1;fontSize=20;spacing=0;spacingLeft=5;spacingRight=5;fontStyle=0;fontFamily=Droid Serif;fontSource=https%3A%2F%2Ffonts.googleapis.com%2Fcss%3Ffamily%3DDroid%2BSerif;align=center;fillColor=#f5f5f5;fontColor=#000000;strokeColor=#666666;" parent="1" vertex="1">
          <mxGeometry x="10" y="1080" width="310" height="30" as="geometry" />
        </mxCell>
        <mxCell id="csSF8z3QhMjriFva3N_5-12" value="Each player chooses a &lt;b&gt;strategy card&lt;/b&gt; for the round, beginning with the &lt;b&gt;Speaker&lt;/b&gt; and proceeding clockwise. Each strategy card has a unique &lt;b&gt;initiative value&lt;/b&gt; that determines turn order during the action phase." style="rounded=0;whiteSpace=wrap;html=1;fontSize=15;align=left;verticalAlign=middle;spacing=0;spacingLeft=5;spacingRight=5;fontFamily=Droid Serif;fontSource=https%3A%2F%2Ffonts.googleapis.com%2Fcss%3Ffamily%3DDroid%2BSerif;fillColor=#f5f5f5;fontColor=#000000;strokeColor=#666666;" parent="1" vertex="1">
          <mxGeometry x="10" y="1110" width="310" height="130" as="geometry" />
        </mxCell>
        <mxCell id="csSF8z3QhMjriFva3N_5-13" value="Action Phase" style="rounded=0;whiteSpace=wrap;html=1;fontSize=20;spacing=0;spacingLeft=5;spacingRight=5;fontStyle=0;fontFamily=Droid Serif;fontSource=https%3A%2F%2Ffonts.googleapis.com%2Fcss%3Ffamily%3DDroid%2BSerif;align=center;fillColor=#f5f5f5;fontColor=#000000;strokeColor=#666666;" parent="1" vertex="1">
          <mxGeometry x="10" y="1260" width="310" height="30" as="geometry" />
        </mxCell>
        <mxCell id="csSF8z3QhMjriFva3N_5-14" value="Players take turns in initiative order performing &lt;b&gt;1 action&lt;/b&gt;: either a &lt;b&gt;tactical action&lt;/b&gt;, &lt;b&gt;strategic action&lt;/b&gt;, or &lt;b&gt;component action&lt;/b&gt;. The phase ends when each player has passed their turn." style="rounded=0;whiteSpace=wrap;html=1;fontSize=15;align=left;verticalAlign=middle;spacing=0;spacingLeft=5;spacingRight=5;fontFamily=Droid Serif;fontSource=https%3A%2F%2Ffonts.googleapis.com%2Fcss%3Ffamily%3DDroid%2BSerif;fillColor=#f5f5f5;fontColor=#000000;strokeColor=#666666;" parent="1" vertex="1">
          <mxGeometry x="10" y="1290" width="310" height="110" as="geometry" />
        </mxCell>
        <mxCell id="csSF8z3QhMjriFva3N_5-16" value="Strategic Action" style="rounded=0;whiteSpace=wrap;html=1;fontSize=20;spacing=0;spacingLeft=5;spacingRight=5;fontStyle=0;fontFamily=Droid Serif;fontSource=https%3A%2F%2Ffonts.googleapis.com%2Fcss%3Ffamily%3DDroid%2BSerif;align=center;fillColor=#f5f5f5;fontColor=#000000;strokeColor=#666666;" parent="1" vertex="1">
          <mxGeometry x="350" y="600" width="310" height="30" as="geometry" />
        </mxCell>
        <mxCell id="csSF8z3QhMjriFva3N_5-17" value="Perform the &lt;b&gt;primary ability&lt;/b&gt; of your strategy card. Other players may perform its &lt;b&gt;secondary ability&lt;/b&gt;, which may require spending a command token from their &lt;b&gt;strategy pool&lt;/b&gt;." style="rounded=0;whiteSpace=wrap;html=1;fontSize=15;align=left;verticalAlign=middle;spacing=0;spacingLeft=5;spacingRight=5;fontFamily=Droid Serif;fontSource=https%3A%2F%2Ffonts.googleapis.com%2Fcss%3Ffamily%3DDroid%2BSerif;fillColor=#f5f5f5;fontColor=#000000;strokeColor=#666666;" parent="1" vertex="1">
          <mxGeometry x="350" y="630" width="310" height="110" as="geometry" />
        </mxCell>
        <mxCell id="csSF8z3QhMjriFva3N_5-18" value="Component Action" style="rounded=0;whiteSpace=wrap;html=1;fontSize=20;spacing=0;spacingLeft=5;spacingRight=5;fontStyle=0;fontFamily=Droid Serif;fontSource=https%3A%2F%2Ffonts.googleapis.com%2Fcss%3Ffamily%3DDroid%2BSerif;align=center;fillColor=#f5f5f5;fontColor=#000000;strokeColor=#666666;" parent="1" vertex="1">
          <mxGeometry x="350" y="760" width="310" height="30" as="geometry" />
        </mxCell>
        <mxCell id="csSF8z3QhMjriFva3N_5-20" value="Status Phase" style="rounded=0;whiteSpace=wrap;html=1;fontSize=20;spacing=0;spacingLeft=5;spacingRight=5;fontStyle=0;fontFamily=Droid Serif;fontSource=https%3A%2F%2Ffonts.googleapis.com%2Fcss%3Ffamily%3DDroid%2BSerif;align=center;fillColor=#f5f5f5;fontColor=#000000;strokeColor=#666666;" parent="1" vertex="1">
          <mxGeometry x="350" y="990" width="310" height="30" as="geometry" />
        </mxCell>
        <mxCell id="csSF8z3QhMjriFva3N_5-22" value="1. Draw the first agenda, exhaust planets&lt;br&gt;&amp;nbsp; &amp;nbsp; to vote, and enact its outcome.&lt;div&gt;2. Repeat for the second agenda.&lt;/div&gt;&lt;div&gt;3. Ready planet cards.&lt;/div&gt;" style="rounded=0;whiteSpace=wrap;html=1;fontSize=15;align=left;verticalAlign=middle;spacing=0;spacingLeft=5;spacingRight=5;fontFamily=Droid Serif;fontSource=https%3A%2F%2Ffonts.googleapis.com%2Fcss%3Ffamily%3DDroid%2BSerif;fillColor=#f5f5f5;fontColor=#000000;strokeColor=#666666;" parent="1" vertex="1">
          <mxGeometry x="690" y="100" width="310" height="90" as="geometry" />
        </mxCell>
        <mxCell id="csSF8z3QhMjriFva3N_5-23" value="Units" style="rounded=0;whiteSpace=wrap;html=1;fontSize=20;spacing=0;spacingLeft=5;spacingRight=5;fontStyle=0;fontFamily=Droid Serif;fontSource=https%3A%2F%2Ffonts.googleapis.com%2Fcss%3Ffamily%3DDroid%2BSerif;align=center;fillColor=#f5f5f5;fontColor=#000000;strokeColor=#666666;" parent="1" vertex="1">
          <mxGeometry x="690" y="210" width="310" height="30" as="geometry" />
        </mxCell>
        <mxCell id="csSF8z3QhMjriFva3N_5-25" value="Technologies" style="rounded=0;whiteSpace=wrap;html=1;fontSize=20;spacing=0;spacingLeft=5;spacingRight=5;fontStyle=0;fontFamily=Droid Serif;fontSource=https%3A%2F%2Ffonts.googleapis.com%2Fcss%3Ffamily%3DDroid%2BSerif;align=center;fillColor=#f5f5f5;fontColor=#000000;strokeColor=#666666;" parent="1" vertex="1">
          <mxGeometry x="690" y="560" width="310" height="30" as="geometry" />
        </mxCell>
        <mxCell id="csSF8z3QhMjriFva3N_5-32" value="Planets" style="rounded=0;whiteSpace=wrap;html=1;fontSize=20;spacing=0;spacingLeft=5;spacingRight=5;fontStyle=0;fontFamily=Droid Serif;fontSource=https%3A%2F%2Ffonts.googleapis.com%2Fcss%3Ffamily%3DDroid%2BSerif;align=center;fillColor=#f5f5f5;fontColor=#000000;strokeColor=#666666;" parent="1" vertex="1">
          <mxGeometry x="690" y="850" width="310" height="30" as="geometry" />
        </mxCell>
        <mxCell id="csSF8z3QhMjriFva3N_5-34" value="1. Place the Mecatol Rex system and each&lt;br&gt;&amp;nbsp; &amp;nbsp; player’s home system according to the&lt;br&gt;&amp;nbsp; &amp;nbsp; galaxy layout.&lt;div style=&quot;font-size: 15px;&quot;&gt;2. Randomly distribute 3 blue and 2 red&lt;/div&gt;&lt;div style=&quot;font-size: 15px;&quot;&gt;&amp;nbsp; &amp;nbsp; system tiles to each player.&lt;/div&gt;&lt;div style=&quot;font-size: 15px;&quot;&gt;3. Each player places a tile, beginning&lt;/div&gt;&lt;div style=&quot;font-size: 15px;&quot;&gt;&amp;nbsp; &amp;nbsp; with the Speaker and going clockwise.&lt;/div&gt;&lt;div style=&quot;font-size: 15px;&quot;&gt;&amp;nbsp; &amp;nbsp; The order reverses each cycle; the last&lt;/div&gt;&lt;div style=&quot;font-size: 15px;&quot;&gt;&amp;nbsp; &amp;nbsp; player places 2 tiles in a row.&lt;/div&gt;" style="rounded=0;whiteSpace=wrap;html=1;fontSize=15;align=left;verticalAlign=middle;spacing=0;spacingLeft=5;spacingRight=5;fontFamily=Droid Serif;fontSource=https%3A%2F%2Ffonts.googleapis.com%2Fcss%3Ffamily%3DDroid%2BSerif;fillColor=#f5f5f5;fontColor=#000000;strokeColor=#666666;" parent="1" vertex="1">
          <mxGeometry x="10" y="390" width="310" height="190" as="geometry" />
        </mxCell>
        <mxCell id="csSF8z3QhMjriFva3N_5-35" value="&lt;span style=&quot;background-color: initial; font-size: 15px;&quot;&gt;Tiles adjacent to Mecatol Rex must be filled first. Then, tiles at distance 2 of Mecatol Rex must be filled, and so on.&lt;br&gt;&lt;/span&gt;" style="rounded=0;whiteSpace=wrap;html=1;fontSize=15;align=left;verticalAlign=middle;spacing=0;spacingLeft=5;spacingRight=5;fontFamily=Droid Serif;fontSource=https%3A%2F%2Ffonts.googleapis.com%2Fcss%3Ffamily%3DDroid%2BSerif;fillColor=#f5f5f5;fontColor=#000000;strokeColor=#666666;" parent="1" vertex="1">
          <mxGeometry x="10" y="580" width="310" height="70" as="geometry" />
        </mxCell>
        <mxCell id="csSF8z3QhMjriFva3N_5-36" value="&lt;span style=&quot;background-color: initial; font-size: 15px;&quot;&gt;Tiles that contain an anomaly cannot be placed next to one another unless there is no other option.&lt;br&gt;&lt;/span&gt;" style="rounded=0;whiteSpace=wrap;html=1;fontSize=15;align=left;verticalAlign=middle;spacing=0;spacingLeft=5;spacingRight=5;fontFamily=Droid Serif;fontSource=https%3A%2F%2Ffonts.googleapis.com%2Fcss%3Ffamily%3DDroid%2BSerif;fillColor=#f5f5f5;fontColor=#000000;strokeColor=#666666;" parent="1" vertex="1">
          <mxGeometry x="10" y="650" width="310" height="70" as="geometry" />
        </mxCell>
        <mxCell id="csSF8z3QhMjriFva3N_5-37" value="&lt;span style=&quot;background-color: initial;&quot;&gt;Tiles that contain the same type of wormhole cannot be placed next to one another unless there is no other option.&lt;br&gt;&lt;/span&gt;" style="rounded=0;whiteSpace=wrap;html=1;fontSize=15;align=left;verticalAlign=middle;spacing=0;spacingLeft=5;spacingRight=5;fontFamily=Droid Serif;fontSource=https%3A%2F%2Ffonts.googleapis.com%2Fcss%3Ffamily%3DDroid%2BSerif;fillColor=#f5f5f5;fontColor=#000000;strokeColor=#666666;" parent="1" vertex="1">
          <mxGeometry x="10" y="720" width="310" height="70" as="geometry" />
        </mxCell>
        <mxCell id="csSF8z3QhMjriFva3N_5-38" value="1.&amp;nbsp;&lt;b&gt;Strategy phase:&lt;/b&gt; Choose strategy cards.&lt;div&gt;2. &lt;b&gt;Action phase:&lt;/b&gt; Take turns performing&lt;/div&gt;&lt;div&gt;&amp;nbsp; &amp;nbsp; actions.&lt;/div&gt;&lt;div&gt;3. &lt;b&gt;Status phase:&lt;/b&gt; Score objectives, cleanup,&lt;/div&gt;&lt;div&gt;&amp;nbsp; &amp;nbsp; and reset.&lt;/div&gt;&lt;div&gt;4. &lt;b&gt;Agenda phase:&lt;/b&gt; Vote on 2 agendas.&lt;/div&gt;" style="rounded=0;whiteSpace=wrap;html=1;fontSize=15;align=left;verticalAlign=middle;spacing=0;spacingLeft=5;spacingRight=5;fontFamily=Droid Serif;fontSource=https%3A%2F%2Ffonts.googleapis.com%2Fcss%3Ffamily%3DDroid%2BSerif;fillColor=#f5f5f5;fontColor=#000000;strokeColor=#666666;" parent="1" vertex="1">
          <mxGeometry x="10" y="840" width="310" height="130" as="geometry" />
        </mxCell>
        <mxCell id="csSF8z3QhMjriFva3N_5-39" value="&lt;span style=&quot;background-color: initial;&quot;&gt;The game immediately ends as soon as a player reaches 10 (or 14) &lt;b&gt;victory points&lt;/b&gt;. Initiative breaks victory point ties. A game typically lasts about 5 rounds.&lt;/span&gt;" style="rounded=0;whiteSpace=wrap;html=1;fontSize=15;align=left;verticalAlign=middle;spacing=0;spacingLeft=5;spacingRight=5;fontFamily=Droid Serif;fontSource=https%3A%2F%2Ffonts.googleapis.com%2Fcss%3Ffamily%3DDroid%2BSerif;fillColor=#f5f5f5;fontColor=#000000;strokeColor=#666666;" parent="1" vertex="1">
          <mxGeometry x="10" y="970" width="310" height="90" as="geometry" />
        </mxCell>
        <mxCell id="csSF8z3QhMjriFva3N_5-40" value="&lt;b&gt;Activate&lt;/b&gt; a system on the board using a command token from your &lt;b&gt;tactics pool&lt;/b&gt;." style="rounded=0;whiteSpace=wrap;html=1;fontSize=15;align=left;verticalAlign=middle;spacing=0;spacingLeft=5;spacingRight=5;fontFamily=Droid Serif;fontSource=https%3A%2F%2Ffonts.googleapis.com%2Fcss%3Ffamily%3DDroid%2BSerif;fillColor=#f5f5f5;fontColor=#000000;strokeColor=#666666;" parent="1" vertex="1">
          <mxGeometry x="350" y="480" width="310" height="50" as="geometry" />
        </mxCell>
        <mxCell id="csSF8z3QhMjriFva3N_5-41" value="&lt;span style=&quot;background-color: initial;&quot;&gt;Gain additional command tokens using the &lt;/span&gt;&lt;b style=&quot;background-color: initial;&quot;&gt;Leadership strategy card&lt;/b&gt;&lt;span style=&quot;background-color: initial;&quot;&gt;.&lt;br&gt;&lt;/span&gt;" style="rounded=0;whiteSpace=wrap;html=1;fontSize=15;align=left;verticalAlign=middle;spacing=0;spacingLeft=5;spacingRight=5;fontFamily=Droid Serif;fontSource=https%3A%2F%2Ffonts.googleapis.com%2Fcss%3Ffamily%3DDroid%2BSerif;fillColor=#f5f5f5;fontColor=#000000;strokeColor=#666666;" parent="1" vertex="1">
          <mxGeometry x="350" y="530" width="310" height="50" as="geometry" />
        </mxCell>
        <mxCell id="csSF8z3QhMjriFva3N_5-42" value="&lt;span style=&quot;background-color: initial;&quot;&gt;1. Activation.&lt;/span&gt;&lt;br&gt;&lt;div&gt;2. Movement.&lt;/div&gt;&lt;div&gt;&amp;nbsp; 2.1. Move ships.&lt;/div&gt;&lt;div&gt;&amp;nbsp; 2.2. Space cannon offense.&lt;/div&gt;&lt;div&gt;3. Space combat (rounds).&lt;/div&gt;&lt;div&gt;&amp;nbsp; 3.1. Anti-fighter barrage (round 1 only).&lt;/div&gt;&lt;div&gt;&lt;span style=&quot;background-color: initial;&quot;&gt;&amp;nbsp; 3.2. Announce retreat.&lt;/span&gt;&lt;br&gt;&lt;/div&gt;&lt;div&gt;&amp;nbsp; 3.3. Roll dice.&lt;/div&gt;&lt;div&gt;&amp;nbsp; 3.4. Assign hits.&lt;/div&gt;&lt;div&gt;&amp;nbsp; 3.5. Retreat.&lt;/div&gt;&lt;div&gt;4. Invasion.&lt;/div&gt;&lt;div&gt;&amp;nbsp; 4.1. Bombardment.&lt;/div&gt;&lt;div&gt;&amp;nbsp; 4.2. Commit ground forces.&lt;/div&gt;&lt;div&gt;&amp;nbsp; 4.3. Space cannon defense.&lt;/div&gt;&lt;div&gt;&amp;nbsp; 4.4. Ground combat (rounds).&lt;/div&gt;&lt;div&gt;&lt;span style=&quot;background-color: initial;&quot;&gt;&amp;nbsp; &amp;nbsp; 4.4.1. Roll dice.&lt;/span&gt;&lt;br&gt;&lt;/div&gt;&lt;div&gt;&amp;nbsp; &amp;nbsp; 4.4.2. Assign hits.&lt;/div&gt;&lt;div&gt;&amp;nbsp; 4.5. Establish control and explore if&lt;/div&gt;&lt;div&gt;&amp;nbsp; &amp;nbsp; &amp;nbsp; &amp;nbsp; &amp;nbsp;unexplored.&lt;/div&gt;&lt;div&gt;5. Production.&lt;/div&gt;" style="rounded=0;whiteSpace=wrap;html=1;fontSize=15;align=left;verticalAlign=middle;spacing=0;spacingLeft=5;spacingRight=5;fontFamily=Droid Serif;fontSource=https%3A%2F%2Ffonts.googleapis.com%2Fcss%3Ffamily%3DDroid%2BSerif;fillColor=#f5f5f5;fontColor=#000000;strokeColor=#666666;" parent="1" vertex="1">
          <mxGeometry x="350" y="100" width="310" height="380" as="geometry" />
        </mxCell>
        <mxCell id="csSF8z3QhMjriFva3N_5-43" value="• Some &lt;b&gt;action cards&lt;/b&gt; are played as an&lt;br&gt;&amp;nbsp; action.&lt;div&gt;• Some &lt;b&gt;faction abilities&lt;/b&gt; and&amp;nbsp;&lt;b&gt;leaders&lt;/b&gt; are&lt;/div&gt;&lt;div&gt;&amp;nbsp; activated as an action.&lt;/div&gt;&lt;div&gt;• Some technologies have effects that are&lt;/div&gt;&lt;div&gt;&amp;nbsp; activated as an action.&lt;/div&gt;" style="rounded=0;whiteSpace=wrap;html=1;fontSize=15;align=left;verticalAlign=middle;spacing=0;spacingLeft=5;spacingRight=5;fontFamily=Droid Serif;fontSource=https%3A%2F%2Ffonts.googleapis.com%2Fcss%3Ffamily%3DDroid%2BSerif;fillColor=#f5f5f5;fontColor=#000000;strokeColor=#666666;" parent="1" vertex="1">
          <mxGeometry x="350" y="790" width="310" height="130" as="geometry" />
        </mxCell>
        <mxCell id="csSF8z3QhMjriFva3N_5-44" value="&lt;span style=&quot;background-color: initial;&quot;&gt;Gain additional action cards using the &lt;/span&gt;&lt;b style=&quot;background-color: initial;&quot;&gt;Politics strategy card&lt;/b&gt;&lt;span style=&quot;background-color: initial;&quot;&gt;.&lt;/span&gt;" style="rounded=0;whiteSpace=wrap;html=1;fontSize=15;align=left;verticalAlign=middle;spacing=0;spacingLeft=5;spacingRight=5;fontFamily=Droid Serif;fontSource=https%3A%2F%2Ffonts.googleapis.com%2Fcss%3Ffamily%3DDroid%2BSerif;fillColor=#f5f5f5;fontColor=#000000;strokeColor=#666666;" parent="1" vertex="1">
          <mxGeometry x="350" y="920" width="310" height="50" as="geometry" />
        </mxCell>
        <mxCell id="csSF8z3QhMjriFva3N_5-45" value="1. Score up to 1 public objective and up to&lt;br&gt;&amp;nbsp; &amp;nbsp; 1 status phase secret objective.&lt;div&gt;2. Reveal the next public objective.&lt;/div&gt;&lt;div&gt;3. Draw 1 action card.&lt;/div&gt;&lt;div&gt;4. Remove all command tokens from the&lt;/div&gt;&lt;div&gt;&amp;nbsp; &amp;nbsp; board.&lt;/div&gt;&lt;div&gt;5. Gain 2 command tokens and&lt;/div&gt;&lt;div&gt;&amp;nbsp; &amp;nbsp; redistribute your command tokens.&lt;/div&gt;&lt;div&gt;6. Ready all cards.&lt;/div&gt;&lt;div&gt;7. Repair all units.&lt;/div&gt;&lt;div&gt;8. Return your strategy card.&lt;/div&gt;" style="rounded=0;whiteSpace=wrap;html=1;fontSize=15;align=left;verticalAlign=middle;spacing=0;spacingLeft=5;spacingRight=5;fontFamily=Droid Serif;fontSource=https%3A%2F%2Ffonts.googleapis.com%2Fcss%3Ffamily%3DDroid%2BSerif;fillColor=#f5f5f5;fontColor=#000000;strokeColor=#666666;" parent="1" vertex="1">
          <mxGeometry x="350" y="1020" width="310" height="210" as="geometry" />
        </mxCell>
        <mxCell id="csSF8z3QhMjriFva3N_5-46" value="&lt;b&gt;Secret objectives&lt;/b&gt; indicate when they are scored: action phase, status phase, or agenda phase.&amp;nbsp;&lt;span style=&quot;background-color: initial;&quot;&gt;Gain additional secret objectives using the &lt;/span&gt;&lt;b style=&quot;background-color: initial;&quot;&gt;Imperial strategy card&lt;/b&gt;&lt;span style=&quot;background-color: initial;&quot;&gt;. You are limited to a total of 3 secret objectives in hand and/or scored.&lt;/span&gt;" style="rounded=0;whiteSpace=wrap;html=1;fontSize=15;align=left;verticalAlign=middle;spacing=0;spacingLeft=5;spacingRight=5;fontFamily=Droid Serif;fontSource=https%3A%2F%2Ffonts.googleapis.com%2Fcss%3Ffamily%3DDroid%2BSerif;fillColor=#f5f5f5;fontColor=#000000;strokeColor=#666666;" parent="1" vertex="1">
          <mxGeometry x="350" y="1280" width="310" height="120" as="geometry" />
        </mxCell>
        <mxCell id="csSF8z3QhMjriFva3N_5-47" value="• &lt;b&gt;Structures:&lt;/b&gt;&amp;nbsp;Planetary Defense System&lt;br&gt;&amp;nbsp; (PDS), Space Dock&lt;div&gt;• &lt;b&gt;Ground forces:&lt;/b&gt; Infantry, Mech&lt;/div&gt;&lt;div&gt;• &lt;b&gt;Ships:&lt;/b&gt; Fighter, Destroyer, Cruiser,&lt;/div&gt;&lt;div&gt;&amp;nbsp; Carrier, Dreadnought, Flagship, War Sun&lt;/div&gt;" style="rounded=0;whiteSpace=wrap;html=1;fontSize=15;align=left;verticalAlign=middle;spacing=0;spacingLeft=5;spacingRight=5;fontFamily=Droid Serif;fontSource=https%3A%2F%2Ffonts.googleapis.com%2Fcss%3Ffamily%3DDroid%2BSerif;fillColor=#f5f5f5;fontColor=#000000;strokeColor=#666666;" parent="1" vertex="1">
          <mxGeometry x="690" y="240" width="310" height="110" as="geometry" />
        </mxCell>
        <mxCell id="csSF8z3QhMjriFva3N_5-48" value="&lt;span style=&quot;background-color: initial;&quot;&gt;Construct structures using the &lt;/span&gt;&lt;b style=&quot;background-color: initial;&quot;&gt;Construction strategy card&lt;/b&gt;&lt;span style=&quot;background-color: initial;&quot;&gt;.&lt;br&gt;&lt;/span&gt;" style="rounded=0;whiteSpace=wrap;html=1;fontSize=15;align=left;verticalAlign=middle;spacing=0;spacingLeft=5;spacingRight=5;fontFamily=Droid Serif;fontSource=https%3A%2F%2Ffonts.googleapis.com%2Fcss%3Ffamily%3DDroid%2BSerif;fillColor=#f5f5f5;fontColor=#000000;strokeColor=#666666;" parent="1" vertex="1">
          <mxGeometry x="690" y="350" width="310" height="50" as="geometry" />
        </mxCell>
        <mxCell id="csSF8z3QhMjriFva3N_5-49" value="&lt;div style=&quot;border-color: var(--border-color);&quot;&gt;Produce ground forces and ships during the tactical action’s&amp;nbsp;&lt;b style=&quot;border-color: var(--border-color);&quot;&gt;Production step&lt;/b&gt;.&lt;/div&gt;" style="rounded=0;whiteSpace=wrap;html=1;fontSize=15;align=left;verticalAlign=middle;spacing=0;spacingLeft=5;spacingRight=5;fontFamily=Droid Serif;fontSource=https%3A%2F%2Ffonts.googleapis.com%2Fcss%3Ffamily%3DDroid%2BSerif;fillColor=#f5f5f5;fontColor=#000000;strokeColor=#666666;" parent="1" vertex="1">
          <mxGeometry x="690" y="400" width="310" height="50" as="geometry" />
        </mxCell>
        <mxCell id="csSF8z3QhMjriFva3N_5-50" value="&lt;div style=&quot;border-color: var(--border-color);&quot;&gt;The maximum number of non-fighter ships you can have in a system is determined by the number of command tokens in your &lt;b&gt;fleet supply pool&lt;/b&gt;.&lt;/div&gt;" style="rounded=0;whiteSpace=wrap;html=1;fontSize=15;align=left;verticalAlign=middle;spacing=0;spacingLeft=5;spacingRight=5;fontFamily=Droid Serif;fontSource=https%3A%2F%2Ffonts.googleapis.com%2Fcss%3Ffamily%3DDroid%2BSerif;fillColor=#f5f5f5;fontColor=#000000;strokeColor=#666666;" parent="1" vertex="1">
          <mxGeometry x="690" y="450" width="310" height="90" as="geometry" />
        </mxCell>
        <mxCell id="csSF8z3QhMjriFva3N_5-51" value="Research technologies with the &lt;b&gt;Technology strategy card&lt;/b&gt;." style="rounded=0;whiteSpace=wrap;html=1;fontSize=15;align=left;verticalAlign=middle;spacing=0;spacingLeft=5;spacingRight=5;fontFamily=Droid Serif;fontSource=https%3A%2F%2Ffonts.googleapis.com%2Fcss%3Ffamily%3DDroid%2BSerif;fillColor=#f5f5f5;fontColor=#000000;strokeColor=#666666;" parent="1" vertex="1">
          <mxGeometry x="690" y="590" width="310" height="50" as="geometry" />
        </mxCell>
        <mxCell id="csSF8z3QhMjriFva3N_5-52" value="Technologies have a &lt;b&gt;technology&amp;nbsp;type&lt;/b&gt;:&lt;br style=&quot;font-size: 10px;&quot;&gt;Propulsion&amp;nbsp; &amp;nbsp; Biotic&amp;nbsp; &amp;nbsp; Cybernetic&amp;nbsp; &amp;nbsp;Warfare&lt;br&gt;&lt;br&gt;&lt;br&gt;&lt;br&gt;&amp;nbsp; &amp;nbsp; &amp;nbsp; &amp;nbsp; &amp;nbsp; &amp;nbsp; &amp;nbsp; &amp;nbsp; &amp;nbsp; &amp;nbsp; &amp;nbsp; &amp;nbsp;(or Unit Upgrade)" style="rounded=0;whiteSpace=wrap;html=1;fontSize=15;align=left;verticalAlign=middle;spacing=0;spacingLeft=5;spacingRight=5;fontFamily=Droid Serif;fontSource=https%3A%2F%2Ffonts.googleapis.com%2Fcss%3Ffamily%3DDroid%2BSerif;fillColor=#f5f5f5;fontColor=#000000;strokeColor=#666666;" parent="1" vertex="1">
          <mxGeometry x="690" y="640" width="310" height="120" as="geometry" />
        </mxCell>
        <mxCell id="csSF8z3QhMjriFva3N_5-53" value="&lt;span style=&quot;background-color: initial;&quot;&gt;Some technologies have &lt;/span&gt;&lt;b style=&quot;background-color: initial;&quot;&gt;prerequisites&lt;/b&gt;&lt;span style=&quot;background-color: initial;&quot;&gt;: a number of technologies of specific types that must already be researched.&lt;/span&gt;" style="rounded=0;whiteSpace=wrap;html=1;fontSize=15;align=left;verticalAlign=middle;spacing=0;spacingLeft=5;spacingRight=5;fontFamily=Droid Serif;fontSource=https%3A%2F%2Ffonts.googleapis.com%2Fcss%3Ffamily%3DDroid%2BSerif;fillColor=#f5f5f5;fontColor=#000000;strokeColor=#666666;" parent="1" vertex="1">
          <mxGeometry x="690" y="760" width="310" height="70" as="geometry" />
        </mxCell>
        <mxCell id="csSF8z3QhMjriFva3N_5-54" value="Systems contain 0, 1, 2, or 3 planets. Each planet has a &lt;b&gt;resource value&lt;/b&gt; and an &lt;b&gt;influence value&lt;/b&gt;." style="rounded=0;whiteSpace=wrap;html=1;fontSize=15;align=left;verticalAlign=middle;spacing=0;spacingLeft=5;spacingRight=5;fontFamily=Droid Serif;fontSource=https%3A%2F%2Ffonts.googleapis.com%2Fcss%3Ffamily%3DDroid%2BSerif;fillColor=#f5f5f5;fontColor=#000000;strokeColor=#666666;" parent="1" vertex="1">
          <mxGeometry x="690" y="880" width="310" height="70" as="geometry" />
        </mxCell>
        <mxCell id="csSF8z3QhMjriFva3N_5-55" value="Most planets have a&amp;nbsp;&lt;b style=&quot;border-color: var(--border-color);&quot;&gt;trait&lt;/b&gt;:&lt;br style=&quot;border-color: var(--border-color);&quot;&gt;&amp;nbsp; &amp;nbsp; Cultural&amp;nbsp; &amp;nbsp; &amp;nbsp; &amp;nbsp; &amp;nbsp;Industrial&amp;nbsp; &amp;nbsp; &amp;nbsp; &amp;nbsp;Hazardous&lt;br&gt;&lt;br&gt;&lt;br&gt;&amp;nbsp;" style="rounded=0;whiteSpace=wrap;html=1;fontSize=15;align=left;verticalAlign=middle;spacing=0;spacingLeft=5;spacingRight=5;fontFamily=Droid Serif;fontSource=https%3A%2F%2Ffonts.googleapis.com%2Fcss%3Ffamily%3DDroid%2BSerif;fillColor=#f5f5f5;fontColor=#000000;strokeColor=#666666;" parent="1" vertex="1">
          <mxGeometry x="690" y="950" width="310" height="100" as="geometry" />
        </mxCell>
        <mxCell id="sCURncKMLSgWhhkJFP17-2" value="&lt;span style=&quot;background-color: initial;&quot;&gt;Some planets also have a &lt;b&gt;technology specialty&lt;/b&gt;&amp;nbsp;which lets you ignore 1 prerequisite of that type when researching a new technology.&lt;br&gt;&lt;/span&gt;" style="rounded=0;whiteSpace=wrap;html=1;fontSize=15;align=left;verticalAlign=middle;spacing=0;spacingLeft=5;spacingRight=5;fontFamily=Droid Serif;fontSource=https%3A%2F%2Ffonts.googleapis.com%2Fcss%3Ffamily%3DDroid%2BSerif;fillColor=#f5f5f5;fontColor=#000000;strokeColor=#666666;" parent="1" vertex="1">
          <mxGeometry x="690" y="1050" width="310" height="90" as="geometry" />
        </mxCell>
        <mxCell id="sCURncKMLSgWhhkJFP17-3" value="&lt;span style=&quot;background-color: initial;&quot;&gt;&lt;b&gt;Exhaust&lt;/b&gt; a planet to use either its resource value, its influence value, or its technology specialty.&lt;/span&gt;" style="rounded=0;whiteSpace=wrap;html=1;fontSize=15;align=left;verticalAlign=middle;spacing=0;spacingLeft=5;spacingRight=5;fontFamily=Droid Serif;fontSource=https%3A%2F%2Ffonts.googleapis.com%2Fcss%3Ffamily%3DDroid%2BSerif;fillColor=#f5f5f5;fontColor=#000000;strokeColor=#666666;" parent="1" vertex="1">
          <mxGeometry x="690" y="1140" width="310" height="70" as="geometry" />
        </mxCell>
        <mxCell id="sCURncKMLSgWhhkJFP17-4" value="" style="shape=image;verticalLabelPosition=bottom;labelBackgroundColor=default;verticalAlign=top;aspect=fixed;imageAspect=0;image=data:image/png,iVBORw0KGgoAAAANSUhEUgAAAFcAAABXCAMAAABGFileAAAAAXNSR0IArs4c6QAAAARnQU1BAACxjwv8YQUAAAL0UExURUJWWnyptYnM3Yrc84zd+InR6ILE24S3xYu3xHuhrbz8/5Dc9Vu+3kOt0z6m0E2z02zM64TW8p7d85fN3G2ZpHScqKP9/yukyxKSthKMtQyKtQ2JrxKFrhmPvCShy1TK9IXr/5Tp/4bBz1J4fsP+/zOq0gOUyQOKtQF9qwB8pACGugyOvCqdw3LM6aPz/6nc6muRm5jj9xOYvQFwjgBtkgBylQF5ngl/qQuGsQuDrBuUt07C5JPy/6Xr/nuyvHXM6BONuQKDrABphgBsjAB1nAB2owKMvBSSvJ3t/7Tr+2uNmn26ygB/sxCSyAGFs0q74Z75/6Xb61N0fXy1xAGBpgOSxGfA3aPL3nTS7HnV61K84iWeyQKOwiKWvXnj/6v9/6vs/wSRvYz2/3Kyw3WrvYrk/2TP+CueyQyRvTmnz7Lm9D5hZ6Pf8gqOwVt+jIu8zann9mHN8bT+/4G0vozE1GPS+ki86JvZ6waYzA2byiSZvZzz/0Zka1iCjqzi7a31/0uz23imsorr/yyixbLh7IzJ14Ksurrz/3zW8hSUwgqWyXTW9GKEjTOlypzU5Ee53EytzpK7w3/t/1R6hYXd/AqTxLLq9XvT7kKx0nbY9Mr//1Jtd4KstmSKk3Scpbvu/BSbwgiYxEVsdKrk9FK722OGkx6avrTx/oWlsSagwXmjqExsc1nI7FPC51t7gxqWwhKbzGqJlES13Dyt00NpdzSfvUaxzJPl/X7e+5fR3om6xm6grWqHitP5/FJobmB8gzyozGPN7GzV/pXK1kCt2hOgyTlcY3KesVa315XDzZi5xV3M9EtxeiScwjSjw2nJ5ThYX5bZ6LTIy8T0/Sqcu4aWmh2awpf6/x2iyGiXnz600kGsy4q4v4Tl/mSOmzCexGTS9C9cbwec02aZqz5faHTa/4Ti96TT3GnZ/KbV5TxmcViHmXvB113T+hyTvJnW7El0gmmmuIXM5rrq9YTC01yJl2zh/22txHusvkFdZEtsewAAAI7UjTIAAAD8dFJOU///////////////////////////////////////////////////////////////////////////////////////////////////////////////////////////////////////////////////////////////////////////////////////////////////////////////////////////////////////////////////////////////////////////////////////////////////////////////////////////////////////////////ANR6x34AAAAJcEhZcwAADsIAAA7CARUoSoAAAAgLSURBVFhH7Zh/fBPlHcdFqUIAW340Ta4/aDW9y12gFHKXppjapEkuLYRQNOc2eiUNoxrQExoES6sUikCTUnBCAIOMVqCdCqtSFdbpFJyCOpwbXXFz7IfKpk5h7qfb88/ux1NJk0tIWvaHr5fv/tF8vs+93q97PZd7nu+T68D/h2+8El9T73Vjrr9hbNqNN42T4uiRvOMVEyZOujk9Y/KEKVOniZXRInozlVkqNaLORnJy86bnF9xyqzg0KkSvphDFtDiOa7UEhulmzCyaVSwOjgLBO232HALX60mKpCiDocRYOvc2U9kop0Pw3l5utlAV1gqrtUJvJW12mqAd6ZVV86QrRobgnV+uwskKHoqyGXC7c4HT6TLnLqxedId0zUgQvHeWq7V6K/9HuY2lOaU5TqPLSRCM+S7Ft6SLRoDgzZygpnHSqrfhmDr929+ZubhGx7IEQSO1SzzjpctSRvDeUZfrtRgMBm1p7dIJ3102P60+/+57zBhBs77lRSvulS5MEcEL7suiccpm5MwFd4pFcP/KVWPT1SyLYY4G/2qplhqi94E1XjdJ4vTaB8WayLRK00IzgjWua2quegjWUkD0PmxyGA1kCbdmmViDzFvfskHHMBx/yxthKXlEL6ichOAk7h3uBaC4rvUehGW8mzyPwErSSN6NBWanwUBP3yymCLZsbQswTNDRrtkGK0kiecHWDgJ3E4VTpBTJduUOHYf6HlV8DxaSA3rHPYZY3C5z2U4pRjJPsas2hPqaqnfDQlJAL/B0GJ0u9Z6YiRCY6t/raww6Hg/vg4UkGPI+UakmLJamahiHs1/TFkBDvoX+78PCtpVpaSv3wyDLkBcc2MB7O5feBGMUs6pruGBXll+c5CcPlk2eeKi8rupJcUyWr7yHld2Yiy3sgTGaH2gO+dB1T3meBuAZ/5FcM0/tUf8P4WgsX3nBg48jtNO46wEYo9mnaO99Ni//OQDCx1iOcFq0Ll9fGA7GcsXL70YM5ur2PA9jDLurX3jxOACbT6gJrd1GUjimavsRHIshwlusnINh3JGDMMbS3zKbX5eaN+m0JI+V0iKbCuBQDBFeMKsNYdncyh/DGMtLL/8EvJLfabRV8HuWnrRZVK3xZjjSC8KTWIZ7VQGTPPuXdFpswl6oJw0unzDfsgzzbvPUcix9MuGLtTO/08V7K4TtxaVqjbdsDPOCW0wBBnVUJlzJTVkYrrfy2PhWoxIWYxjuBVWn+Buu8Sd6YV9r6/TiFA9OBMq3w2IMUV7Q8lNevDD+95JHs/x1n9uNaxHdzZo3YC2GaO9pRQ3D+NpXwSjHcy+fcXi7GK/jjOYwLMUS7QXLTL0MozK9CaMcb/WY3l679m1Tz89gQYYYL5ja7GC6znoyYZSluH/WopUJO7hYL1jRrmNC72iSaVZfgv9jkfGC8M91qHdv+F0Y43Hv7WWeX8DPMch5QXgDh3J3JfxSAPDLcze8OJC/HqZoZL0PaR7lGn0Z52CU51cHXnh93aBpEYxRyHrB/eGOLtTcdgBGecacfw8Nzq1+DcbhyHtBsX8Gi+pOrIBRnjeLehuZJqVsMxTHC057ZoTQwPHE4kfqfSgz4Pk1jJHE84ItngGOCZgSN1A9ezjU+xuNzPsR1wtWe5oYNFCUWBxeHGJ06RqYIojvBeM8TSE0N/Edv6F5n2O5hlhxAi/o9zR1oYGChMv8fuEB+ybHPIdEXvBbzwDTGLgQr6cQWV09l2Yd56P7mYRefo7PdjX69sjM3xVWtau8zKD/dzBCEnvBGP/vmUbfH8Jx128ezTEvy/X5/wijxFW8IFOxnH+lJ2oSHBFvVXazrHdNC4wSV/OC4nA698GzxzRDraQM/QUOhja33gijyFW9YKdmcfAD9lV/P8wy9BylCW+38kMYBa7uBR+FM7jGUFN1vCURgOf9fN/B7fDDKJCEl38yFwNBZu6ftsZd6TfvMvPH3hMRXWBSXrC+YJAN6Ro08bomcK6PJpBB5cMwJusFf1bWhIJ86/YWzNFkmnQWC33sSmuXpJfv1/f6glx3cxXM0ZSlZ1swJH8+jEl7wSuKBlUIdcwMy/+MMq1S7XJhZ5UwJu/ln96Fbgb19Xnke/SDfZhL6/t4aFdKwcsfPWdwaKi2XiN3whqzhLa4se4WeEZKxQs2hs8sYDhkh+cTWIjgU1OuBbdkZ8COIiUv2Bc+kcswjKNNEXtYGLu31G7P7j4v3XBqXgA+aemgGVTXZyr7C6wM8VlGjt3m9n4uHdRS9YLx/gZHiGEvTfRc/issSXyxJ0dL4fR7ZWJK2Qve3d084GW9usDd1ddHHv8/yyi1kzYnUi8uP6l7+V1EcVLlpVn60smi7Ve2iaKOEgPJn+lu+5uQRuIFz/y96B3eS6sC0/Pr//HPj/jSp3VrkBKKJA3GvFbhkhF5AXjC316rwwgWDWVlzK67fHlK2UxzSEtZrZQl9JjwREfo5b8Y/jMIPxkhLFvdm1dYeCnHpcNJPUmVev/1b354xF5wuMdUiOhYxuUiaIKwuA3uUuF+cfZzYUMauZd//bbWb/KitMuNG2wURVIldmEe2OnCgxuNF4D5yiV5KoS/V96qt9q0JIXrQh+Pbh4kxtUdf9+B8UuZ3UbZdTqtyzdnqbBrjNYLwJez84/0mhHEaHQFgwStOiQ2EqP3AvBhWtnxox29C7hQKDSYERZ/Jb0WXp4v0nbVX7h46tRF033/EQvXyMvz33njt3x5emgtunbe4Xzjlfh6eQH4H/TRYsef78lOAAAAAElFTkSuQmCC;fillColor=#f5f5f5;fontColor=#000000;strokeColor=#666666;" parent="1" vertex="1">
          <mxGeometry x="720" y="995" width="40" height="40" as="geometry" />
        </mxCell>
        <mxCell id="sCURncKMLSgWhhkJFP17-5" value="" style="shape=image;verticalLabelPosition=bottom;labelBackgroundColor=default;verticalAlign=top;aspect=fixed;imageAspect=0;image=data:image/png,iVBORw0KGgoAAAANSUhEUgAAAFcAAABXCAMAAABGFileAAAAAXNSR0IArs4c6QAAAARnQU1BAACxjwv8YQUAAAL6UExURUNvWUl7YUl7XE2EY2Ode3ekimyWdGGhd0ujbVOsel6+iUyvela5glzCh0OrbTSiZDakamvEkmaUelR/XozRnzKVWxqSThSLSgyLSQqKRQGDPQGJQgOLRBiJR2usg1CJX0SfaQqCPgqSTAGJPwSMSAGFQguEQ2Kzg0FzTk6WaTOdYgGQRgKGSEiqbVKValysfC+gXQOERByMTFKsdAF9Qlu8hDp4WFW2gBOLRQCCNyWaXEucbUyLYztsTEuTZgGCQTyjZVOydmOtgmajg0qBXFy6fh2SUwt+QSqhZUezeGO6hFOLanO0i2e3ijOcXFOEalODZGy7iwp8O1a6f2u8h0qLXXu1i2a8iRuOURSFSjyqbUWxc0Wtc0mxdjyscSqaWwF8PTt0TlyUc3bNmgSSSiOSU0yncmOtfVaTcViPcU+GaF+WeGqyhWG0fCqVVWScdXu3khODQ1yyfE+OaVSbbIjGnXG0hVaOdDx0U1qTbYLKm0hvT1qMawJ8NiuRT3vKlUFzUnrUoTKQV3O7jER5Vgx3PCGMS4HTnkV+XEJuVIPSonzQnmu0iwN3Qkl0XGPCioLMoiWUWhuGTHWri4rMn3O7kkOka4HAllFpU4K7lAt3NGyiflS0fHfCmFp6ZGykgW3DjhKBPm/LlEprU3TLlW6uiVB/aQmWUAJ0NQF2OnvElDmWYCaMVVy1gnu7k2u9k1qDZoHFm2upfxN8PHTHjmSkfV2cenzLnFJ0Wx+aVUy9fBJ+Q0ljTBKRTVutgUyrc1abcVucdFisd1ykdGmXelSkc2qefnTElC2eYjueZEyzej+wc3KrhlatgUh7VSKYVxKTVXKggzptU0OGW0KkZlqmeQ+YTlbEiEZ1XCyVWzula1BtYVuHbEaMYUBrTz1jTVeieQ6aVXSdhzeEXU6Wch+bWlJ+ZFOOZ3m7jSiKUGuVgEaAYRB7ND56TSGHTXjTl3jDmCiLTDWLUxF2NkZiVEGcYkaTbI3Mpk2legB1Lx2ERpTTqUlnVAAAAKvZVAUAAAD+dFJOU/////////////////////////////////////////////////////////////////////////////////////////////////////////////////////////////////////////////////////////////////////////////////////////////////////////////////////////////////////////////////////////////////////////////////////////////////////////////////////////////////////////////////8A2NkMcQAAAAlwSFlzAAAOwQAADsEBuJFr7QAAC1tJREFUWEeVmHlcnMUZxzFJm4RcREvgnXcSM7wHyr5ohiyFjcdLCLBKCJFXlIAJGWE5mhCaJdYqutUaE1sNItEkTZrW4BU2Fo0H0UotSfAIaezh1caqbe1hrK21h62tfT+fPsMOsNe7S7//7M4zsz+GOZ5jUuxJknLWlKnTPicayUmu+/npM2amzpo1e87ceWnzzxbGpCTVPecL6QsyMiWEkIzlhYuENSlJdc9dTLJkRcGqpmapevZ5wpyMpLrn50hYcSmaYRiyTHIvEOZkJNW9cImsyJpGQRfLJC9bmJORVHdphqRoWdTNhTWJ5H9R2JOQVLegUJYp6Lop1TTZs2z+RRdfIroSkUz30jkIaxyTUirLGC0oWp5dvOIs0e1IYt2S4tIyRZZlzdAM09BU+IoR8mZcdnn59BIxJj6JdFdWrKokWMGwEHznuKjsUrALuxREcsorVotx8XDWvaIqv4xIGLtADY6C4vEoCCmKC2RdLhVLVtmV1VeJsbE46l5dswZxUZeiSN7asmV111yzdu26+vULdMb/BxXUUV5p1bVieDQOug2NOZbkg4kpit7UnN2yqLXhSxs2rNy4saGtZVNuHlEkWB6Mrfb5Xxa/iCK+7uZUP1UBCWVcnt+xJfLynnddR/5c4kGYb6fV8RVhjiSubuNcIqkqpiiv/PqvClsEN9yYvd40KCw7suZ2CmMEcXRv6mz3YFnFxF9QdbOwxdA2zzSpacLBDnztlluFMYxY3Slfh5urKAa5bWuDMMVye/Y2t+F2u02kKWT7Hd8Q5glidL95Z4Yma+AZl90lLPHYkd5FaRfoMlNDJO+OGJkYw10LqG/UFRSWCksc7u42TZguCDNGqUmbbhEd40Tr3tOjYMPgunTnPcIWy73rZY26uwDGmJti1H6f6BkjSnfXbh22gs/X0Fj6HmGN5lt796mywdfX3cVgKXRFKrpa9AkidTemmlQ2TL7PhoxZh8Oht7+938IQQUCX8c2jJiblN4q+EJG63/HDVEGWK2OXRKq/Kzqiuf9AL6IGhX3jk4Z1UwofEF0hInR35bgxHEo+CxPCr9pb/aDoiWHDQwtRJoxlpttrdFFDQ/MeFl2jhOs+MifzIIL9gNlSDTwLqXa8FnDMO9MtSUNI8/Y1pQVNGUvl4R45XLeiDJygZoZ0DcOcNU10xOfQbovKCrEe7W78HtMwbqoSHZww3ZX9JrhZiDiwuAY23Lt3iA4nNu/vxcha/phtP66bsgvNPiw6gDDdVWvoqK7GT5ls9jwh7M48WfOU/+kB+HJkFgPv3xSWDU3o3p2vQGhQPIoK6hiteUbYE3F4z95nR7/U+CmscM0Now3OhO60NE2W0fefG+SrJvU+cLuwJ+QH4vOC5Qwrz6/9oWiG67bV+lwqKc3eMdSLJNK9UpgnSZUOQa92zlHRnNAt6ScuWd99nW0fq143ePxJYZ4sK+oVrHmalne0DQ+8APs3rvviPIiEetWoi964+YVR2/9BSkEAm5QRUlu7Pq1m5YRufyF2qTudp7n6pYEj0wacU4aWheAvTaqamozaj07o7qdZLlzfKlrR3Pxyf06Gv/ZEwQGnK3h0xDKRiVQ4p2xJy7ju1JOaD6OTj4hmFPfW+AOmDEEk4K+6X9iiKOkIwo1icK00Pe/Fcd0jPwI/g2eJVhQVpdsIRHXEPbPV7OCVi7eZED1M7oIWzhjTPXWn7pJ9Ga+EWlFckRogCkjCjyCOWOXCHMVALThCdxCGIL1/VPfHw+Xd7QiSxZ/0h4ZEUbEdIXBFFEIO+HC6c5WwR7KoxzR+yoIQ75CVCro/a+svygjA/+nT1l8kxkRw1qagQsEldwW7eAQ2PAVxs9+GHvjjQRY0KQoM2Sk3Zvt1CVOehpIll4oxEZxfRDSTsSAAM4YQVRc3B9qSg2AUrLAkK+teTXmtCHJRSJspVcjr54sxEbzRDhNhrIsLd0H01U6sED0RtKYxPgwCP37z579IubiUgizstIlIblzd8tOjawuqfTBhOPc9ERFnjIa34M9DUOATfm51SslxokJQh1CFSNFrvxSDwhlu94p16IOVcGvodNw40prDNFgJikzque3tlEuadRViDoBQ5TtiTARbZliQ03RxYZ6EaGhu3DvXukzhpwaxAKk8dDjFvlCHyowHNYTa3xBjIni3jUASAgvHZeGgWTW/Ej0RTFtmwHSDg2kF2S3nwjnbVQuJE5RRsA5NE345nFPtUMZCBceTECqx9LjLaw+swT7N2r112ugpTLn71xkuqHYQn7Ae/77ZjX44XeZobUjRoEOAKvb6fkN7xmJtynu/fd6HXTxvUBQW/77Zh+8Z9MiQ30CGxwbviO8rr+2wqMaat4hmiv273yuugwexqh1U0ToHf/aHh97yWrrutbxFnQ714KVDxKDWhWNRMcVecRlk57yU9PmUeU6Jnn3/jpbFjy7uaHPwkrZ9fAnkPN5i0QLds3MCRDIhdcBYLmwR5jic837rlqniezgiGSktxFjJGw41uO6DZzYtHynqqQW/LZOOeL9MyJlVFVfAx4aTHsgS6o+FjFwX/OT777wxMz8NUha9Mu4JTkBnet8H2RUldnGPR81Cs8cLmLF4ARlApqJKeqpoTZKquQFJ7/tgZiPkJeqbCzuEOVz3WL0HG6jupVDrj++FPhOzYn8AclUzEGzKkFWN5kL2IZjQtVOhyJT1ULI5fdOmM6NfEvLhAQthBcFt0SEHlUm1sANhum3zKMbmSBt8faL5T/tePxQyO/Pqy4MMQZlMGWLgyzwn+E8FYbrnVXkhdrIrr/pz42lL0q2eZ6aIHgc6P4JgxnTwzYBJSGrYo0GYrn0qB6kuk/yl/KkApeDjdn6cMPnrTGcSNVkfg6gGrsNKD5tuhK59gMi83iaEZ0QQmbzzHa8XzCI3kMkrrWAQ0gaIPtt2iY5RInSnL2XYpYB75sUTd17ejqhyb4LD1+/DvObkUQ8hNwsMiZMUIkLXfqwMga/gYcrtBWVTZ81xXxeAB7f6ocSBWpaHEWpaf43c5kjdSx4gcG5MBMkCn7FpyNbf9oq+aKZ2B/kYWIcuJun7DkU+qkTq2sOlAUXmUZJBDsLAZUh/r/iH6ItmYOk2k3lhxm63bpVGvVVE6dpnci0N8+gLFTVPQtjr00VPLLtO93lhAm7qDeZuFbYxonXtPZ94ZQqZIX9dIKbujdjlKBq3w1IYmTQ48rGwjBOja983QjKpxl8s4LD3reXlmQP/7N4egBwzIzgS+1IRq2vf9wlUWpCpQJz0DsaP0Jxbq2b7kYeYqG/kX8IURhxde/OQxSAPNAwarJsvbNFMebgqvY9mKR6ybyYUsjHE07VPHRgMEChmszzP169qjfPce3F2d+U+RpAkeZ6qrhDGCOLq2jc/k24xCKeqEvhoqG2gISwGT9nQOpC9NC+AFKRIpDf96fdFRyTxdW17b3YvQwpWJckkGXWz8of6y1/59NP+/qVXnqzLI0Gd8rcwj79jz7viB1E46doNLw/1QjCQsc+lIE9AKiwr6ykrqyWBgMenwuJjnQ3WPe748OGoC4ncrly/B2Gsqj4sS8IZgTtCqoo04ultrkjw7pFAF251zf6mQS/szpsuRYbEFlI0yKXAbeBg3v4a51dGIKEuOJeBtuOVhUTXIDV0c/fFZ8wz8LYk9X4SXaBkuLz/ZL0uaSx0ubmu9bTodCS5LufWrYuZqkG8gbqFC/vH8yUnJqcLCYglS5j7DC5rrjkizI5MVndFO0IU89AL26adSPrsMVnd1WuZiWD3TKi+Va0ywYNdiMnq2gWIyKbsUmWolf+9+G1hdWTSusX/2WZZ/ow1y3LSRmZ89l9hdWTSuud81jI83LbogmMtRz98xCnkTTBpXfvZm8SXSWDb/wP49R62yAnIIQAAAABJRU5ErkJggg==;fillColor=#f5f5f5;fontColor=#000000;strokeColor=#666666;" parent="1" vertex="1">
          <mxGeometry x="820" y="995" width="40" height="40" as="geometry" />
        </mxCell>
        <mxCell id="sCURncKMLSgWhhkJFP17-6" value="" style="shape=image;verticalLabelPosition=bottom;labelBackgroundColor=default;verticalAlign=top;aspect=fixed;imageAspect=0;image=data:image/png,iVBORw0KGgoAAAANSUhEUgAAAFcAAABXCAMAAABGFileAAAAAXNSR0IArs4c6QAAAARnQU1BAACxjwv8YQUAAAMAUExURXUzQ4U7S4w+S5I+S5NBTZc/UIRDS3o5SZlBTp1GU6JGVJRGVaRTYnw6RM2bqsWDkrZMY9NbattbatxaZeNca9tXadFjb8Rkcpppd8p2hd1VZM9caspZaLdqgN6ntbRsechfcLskNcIOINIWIcwXIcsaIsQWIcQaIssZHsMZHdEYHbsVHMNRXphWY3lKVLQVIb0aI7wWIrQUG7QZHbQbIq0WIqwZHaUZHaUNE6sTGbsZHbMNFOpkcvNNWNkVHNMUHNkXGtQTFuAVF9YoLNRMW+U9TcQVHMMOFMMTF7sSFbYND7QMF6sSFqwNDrMSFuRFU/Jue7hTXrdaZ+tte+lLV9IZIs0SF/9SX+tpd6I4SqdLW6JJVuRjcv9qersOGqQSFtU8ReNyfbtmdXsyPdJkc/FhbNczPNcaJuEyP+RNWuJUY+BNY9pSXtdUY9U9S7sqMetjbNtse4tDUYxCTdNse+pdadMsOssVHL0eK9p6hZxWXrWLl+RMVMokK9dJT+1yfbtjbdWBkKxia8c4ReNte8RyfMVLYLo4PcVqdc1jbfJmc80tOcwrNX5WX6dndqtVZtxzgrgpOM1MW9JyfdIrNcMbKuZ6iKNbY9yEj/h6iNNBTJRUW/NdaZtWYfFxfcseLddOYcIOG+JqdpdLV9tBTdpnerNka9pEU8s0Q3U9RMcrOrANILxteuNzgrtrdHUzPtNqdsMlMepcZY5LVLxwdcs9S6cOGcsPGrJTYtxyfuRcZcskM9UmMsgPF+5zgdxLVKsNFNAMGupXZeVSWNs9S9V0gpwOE6RUXdpedINERnY6PcxqdctyfMUrNaxQXcMiLa1aZNhvgNxlc5kMDdtrdcxlc4dKVLNmcrsNFKUTGqMKDbokK9xibeJETcdibtM1RMQnK9NFU+RSXMwyPOVibNh8in1DTMpreto4Q/+ersZWZf+Nn6phaIc5RN5NXqspN4ddZcQ0Oupwd6waI85FVL5ec3cvPZwSFbN0gOlIT5cRFK4tQqxbct2UoX5hawAAAKJ6M7cAAAEAdFJOU////////////////////////////////////////////////////////////////////////////////////////////////////////////////////////////////////////////////////////////////////////////////////////////////////////////////////////////////////////////////////////////////////////////////////////////////////////////////////////////////////////////////////wBT9wclAAAACXBIWXMAAA7CAAAOwgEVKEqAAAAMbklEQVRYR+2Ye3wU1RXHeQmCoiabYA1aIfucnepkZjeTnQndhQqTnWQyBMJuEWiGVB4l8gqvCQhiBSsmVCOPoIDQIPI0GoJskAiEVxAUKaA1y0OeIrVoq9SmpY/puXcmyYK7m/zTP/r5+Nskkzl35puTc88998x00P43+oGr6weurv9LboeOnTp36tKlM3x0db7jji6dO3Xsii+JpW4dO9+J1b17D3RAN3a66+6e3dAg4t5z730JiSZTEnxMycmmxMTk5GQ4N/W6/150SQz96IGExERTckpKCro8ITGhd0Lv3gkJD9730I9hFPv7cJ++qWaL1WazWu1Wu90KcjgIJ/mTR9BoDD2aSKWRZBrNuBiKcqezLJvh4fjM9AcfQqN6fLv3+6nZ7MUym31eb//+/Qf0/9ljiXgwlgYOErKysvyEmJ2TkylJUm6uLDOD84bgweZ5G5o/DIHN5oDZ6XT6nM4BzuDPhz8+oseIkT0gft2ReuBDD10jHx/1C1oskMk0UeY4RZGkbDFzdOEvDV4zV3tizNhxFut4cwBC4HA6HQ5L4FcTip6E8E00FcHPlCIcSvgUFRWZikyTUgZOTiMZjuFdEseBu5w0ZWrxNIPWytW06TNmzlK9AdXqDAScFkfAYoGQW+yCTRAIwUHYbA6bjSAJkrSRNMmTPMOQDMNxDONiOZnMKTHNnmOQQB2eetT4DTQif+48awDiEHBYLVaL2ecb4B0/IOgLDgiiL2dQDfpVf7NEkWFklmNkUpY55un5zxgU0KNPdfh1nxmdjDPQs4WTBV9/J8TCaoFwqCjYDocqqIYEwU8KJA9OM0iszMqyLGaRCxY+ZxBA3YrH3Nth5G+ez19kGJBeKC2zWgGMUg2CTKiQcRAHgiAElSD8BMnzJMm7eJeLdckuBrA8t3hm8XTjdu23L75U/vKSRzpoD5SlDsqL+B+mLU1aFhwfsBKIi0WAnw7gEjYCQi2Cs7yLIV0MQ0Eg/OLyJytWGPeCXnl1ZfrL5TBvq1b7zNaJ5a8ZdtDda4atBXfBU4fFifyFaUMO08jpx7DHPEm5KBlCS1Mr8/oY94HmzP4dVVmw7nWUD8Xrzf2FZWPf6GiMgTZUbFR9A1CyWSDMEAaEJXiUDnYERaLIAlGo3LTwuc3GTZrWtXjqFm5rweg3cZ71LCS8A7ypk6veMoZBb1ePXeawqBaz2eIAZ9HMEZBwkHIkIWAsTRbQ5LaadduNO0DvFO5gKjND9Br4Syh/nxlWq6pQHQbn7dQvQNr+7q66Wq9TtUIg/CqkXGDte++tVXerqs2GuIIg0BOrIgI7dM9eN8d56kOT0GThdZFfZ3UK5vH71s4sb1kwmrZz+IS1VosKKCs9a9j+sbtSTDWrD5SRNptAVpI0fXBNxGyvOpRUUkDWNyjMlNnoHHMPjxL6Oxy+gNU/bmzxE8ii66X3Dwo+n1etS5qx4gi2HD38Qb9Zu31BFQL7YWtgexZPPSa7ZUlSuJxdOAMwVzs0zqc6LA5V9arrCyPC/FCv0jLBtn7PR8Y5Uvf5E9Lo40WFXYxz0FuFK0lRliVW8XCbCrFJ53YttVmhJDgdTovFPnj477ERa/uJB3svNX5v1jsnl5yIDGz+XjesZElRTinZ7Mf6CtG52icbrbWQUzBHPu++taZDEbN894v6seuqOav+oP/6yKf6EWn7oaRtjVAqwxmn2TO52U9DjiEZXG3hPK8TlQQokeaAMK60Gu9SrRp6tubAubk1Uz8zzg11m1F6nqKhUkphznPhMdG+pqc+0MzdMKwWqHiJWZ0+r+1geYRPmjY7ZZklGAxmLd9YscowIX1adZEWCpiQR+E4qGyieKk5RZq5Wv4si2W3g4BFq6pQeInlE/JfMoa0J169TNghY0mSoLfltaz4j/LnusmcHCjBNMeykLuNx8qNoVbuiH52c1AAf+2wvKCqe9WyK59f1ccqLquqH6qCiyT9vm0VeoiuLk2qa/SLTHq6Z97i+hBgGWZmy3S2cLUvxnmdEAioWQRhtxJ+h4O8lo+v23BJhRoBZUGEyiCS599AxqF5o2HjgNLu4iQu3QN7UQ63oxqNYLVyO5UGAqrNDlEm7HabQPjVoPf452hk6TwfCgHPA1cm+dSZaPsvLCEaRQJqZTqH0pbdyhRQha07RCtX+2yv37l48Htm1UYAFmq43zduA9jvOsn7/ag4InfB68ZLiNv7PC2LTJpUz3FcPXd80NqC7I1GjiFFcLWqeY6Bfxy0G+2PsDUAWD2HuCMmkX69hvE0CTFuXI9S5cuNFCMzLogC7JrSjj8NokrmY4quSO71S2cWfdWvzga7GMISft/c62DeuZL2oxJmR84yjD/rMmoSvvyagt3Sc+GCh5UKjs346uSfe0cs01u42rsVV7WdSXafA/axNNgb9p1Dl360147DMA9aJpIhxd2jMXcjBQVBcrsljqGurNCmvxKxc97G1f4C3x9eM1eS2F9h37WhYBiZSO7Ww8DwDEnbajc+C9ZJkxnoRtBXLrXjhHFvq27lIl0thfaD4FEc1GWfIEv18qDoAiR8QS9CpyahMpFUB02JxCmcTFNVEVXb0Pe5WvVAKNw8D01Cbdr7d4HhzXO14C1wKZJlyNQt68C2eapNhpyFzowt2BtRWZsVhatVHXei+ecJP/0kCoS2ZjneemC5yZClo0aCacUBP4QXNWbcmcg8aFY07vVLu/FmDvC64cjwWmFarb8SKnemKKQm4fk5sQ244bAkyWxixHbUomhcbWEZNF88bGF07Vz8P65Yc43iaZpKc5WN+gIZ7k9hSA5qrpIrfnMIGW5XVO7r69KyRHCYJFX+2zuR5epzbwycfP7axbNLcZl8Lc/Ge6RwRhi6vqkRHU2ronK1D0cH8eri/eSxPfpGOm1nr7MJQ9A0wu5ZUSbKkhIOh+tDO4qx6XZF527OW24XGdzXCJf3vG5YmzXt1cvQ7kEYOCnHXRX9oSk6V+vzNSGSFA3NUhaxZc+tE7OhcDF4i3IslNkYLceQYnC18jqLSNEUxYgyWTJh+NDm5u3qkG8PuJGvYeBKmdv2GPbbFYu7Yn8l5CtFuWSZJFLrvq5+GJsfLp64TRYzw0pYkRRZDiXh/I6iWFytahPdKLtRUw5zzpM39CZiIZXOQluDuPAIJF6OmmNIMbld8ksc8PjAsPDUJ+VmpeHNR1tty5FgvjjIBcXDuPtF9Bm3KiZXW3RQKHCjBwiWc9mz0sbgK2tssDkoEF0FlgT31w/wldEUm6uVLqdlFzyesqzLnu0eg20zbSi9OBQFhXFXGU1IFMXhfpfCiBBcaDikXDGtmQsJFob4ZigSU4TqcAzF4WrlF/wwa1C0mFwxwl9OylDCkmfrlnxsiq543DlTCyBTkX9SJBeKucJKTPrJw9gUXfG42sebeASWlNzm+NbYQtCKoRzLWXB7+3qL4nKPFLr8yF/IVHf135AF/FUUqAsejsqP+zYlLld76+lK4LKK1Oge8zYy7CK5piYEDl/EW19Mxedq6/rekKBVlLLdeutVQ3NNipIRZs5EL48taos7kwuFoHpnu3X3wF8F/A0z+9HmGUfxuH/vVbR6GINnqSUfsL9KSP7H/qKEyMf12xWP+8ACG8W6ANOE5g2bdpFSAxgUl0yXLIhZdEDxuFfzt6ZDOYSJUrLdvXA+XKGR+2DyZDInI95bfE9x41t9MexpAkiTkulqzgfkb1PTzYb6lffja2IoLndz+Q25AYGV3Bv6vNWQ6M8ANyN9z1FsiaG4XO3TlHqYfszFJfFIDRnCXKUp+Tt8RSzF52pVLysNiCOx2N8j+9G6AMlT8BNCbLXBHXEyLKFoShkv4HPIX/R3lPor8V4xgtrgaku/qT9182ZTPdsLtyd4XZw6FcYdbzy1xZ1+hcu4efOUxI7RuUwIwu0KR+l4b1VbXG3RkrDS5Mm9Ua3nGaM03XQfXxnx5BNdbXI7VNyAJZerzxtwIdhcSbydQlebXO36pHqmRGSNeWOUBsUzMVY30qq2udq7Z9hcke1lrLdwgzKlrUkDtYN7+GTD6dwMPR9MTKghNCryVUEMtYOrLX3+9OmM3jp3a6hhQevTdWy1h7t5frg+/JkeB77+RlV77mnPNdozSzxh/ALmqIneOrD5VXdctYurzXZTOM+OTqT76u+x2lL7uCtMIT1/U7Ymt7ydiav2cbXyf+plcVLfGfjYptrJnfbFv/BxyNm2CoOhdnK1F+/Bh3/rjwNtq71c7T/4560vA2JK0/4L6p0cPvzgjOoAAAAASUVORK5CYII=;fillColor=#f5f5f5;fontColor=#000000;strokeColor=#666666;" parent="1" vertex="1">
          <mxGeometry x="920" y="995" width="40" height="40" as="geometry" />
        </mxCell>
        <mxCell id="sCURncKMLSgWhhkJFP17-7" value="" style="shape=image;verticalLabelPosition=bottom;labelBackgroundColor=default;verticalAlign=top;aspect=fixed;imageAspect=0;image=data:image/png,iVBORw0KGgoAAAANSUhEUgAAAOEAAAD0CAMAAABadrFgAAAABGdBTUEAALGeYUxB9wAAACBjSFJNAACHEAAAjBIAAP1NAACBPgAAWesAARIPAAA85gAAGc66ySIyAAABI2lDQ1BJQ0MgUHJvZmlsZQAAKM9jYGAycHRxcmUSYGDIzSspCnJ3UoiIjFJgP8/AxsDMAAaJycUFjgEBPiB2Xn5eKgMqYGRg+HYNRDIwXNYFmcVAGuBKLigqAdJ/gNgoJbU4GWikAZCdXV5SABRnnANkiyRlg9kbQOyikCBnIPsIkM2XDmFfAbGTIOwnIHYR0BNA9heQ+nQwm4kDbA6ELQNil6RWgOxlcM4vqCzKTM8oUTC0tLRUcEzJT0pVCK4sLknNLVbwzEvOLyrIL0osSU0BqoW4DwwEIQpBIaYB1GihyUBlAIoHCOtzIDh8GcXOIMQQILm0qAwWF0zGhPkIM+ZIMDD4L2VgYPmDEDPpZWBYoMPAwD8VIaZmyMAgoM/AsG8OAMKzT/6r/s5/AAACHFBMVEVyp4pZl3VCiWIufFIeckQRajoHZDEBYCxzp4sxflQAYCx0qIsPaTgld0oEYy4QbTUcdjsnfkExhkY5jUtBk09ImVNOnVVSoFhWo1pYpVspeU0QbDQgeT0whkY/kk5OnVYIZjBDlVA3glkHZTAedzw0iUhLmlQzf1YVcDcuhEVGl1J7rJECYS0ddzs4jEpToVgDYi49kE0Zb0AeeDx6rJAYczlNnVU8j0wyh0cof0EfeD0XcjgLaDIGZS8DYi0BYSwbcEIMaTIuhERPnlZFllEKaDIfeDxCk09Uolknf0FooIILaTIwhUVUoVlElVArgkMoeE0ZdDk+kU06jUsUbDwlfUBLm1Q1iUgGYzAvhUVWpFoOazM3i0lHl1IadToTbzZXpFojez8VcTdAkk5ClE8OazQWcjgjfD8hej4feT0OaDd8rZIdckMZczlQn1cCYi0tg0QjdUgmfkB1qIwpgEIJZzFGl1E1gVcNazMLZjUUcDc2ikkkfD8RbTVSoVhKmlM6jksyiEdHmFJlnn9RoFcSbjUyf1UddjtDlFAqgUIiez4FZC8DYy5Vo1ksgkMKaDFImFIMajM7jkxMnFUbdTpmn4Axh0YUbzcNajMmfUABYS0VbT1NnFUWcTh9rZNBk04ogEIqgUNJmVM/kU4EZC4adDo7hFwziEd3qo4KZjRKmlQRbjVXpFtRkm8acEEJZTMHZjAMZzUneEwAAABzUaRjAAAAtHRSTlP//////////////////////////////////////////////////////////////////////////////////////////////////////////////////////////////////////////////////////////////////////////////////////////////////////////////////////////////////////////////wDv+FEKAAAACXBIWXMAAC4hAAAuIQEHW/z/AAARrUlEQVR4Xu2diX8URRbHuY/iSAgE0iQQICABQrgN4b4TDkHDIWBA5VJ35TDGa+VUUEEQFhBQQUFUvN2Vf3BfVf+qunume6aruroHZuf7+Sjpmel67zfdXeerN30elzsVhU8/FYVPP9kp7NO3X/8BAwcNHjxo4ID+/fpmZjgLQ0OGsgiGDsFHUiRthcOGQ0wkw4fhoymRqsIREMFGVlWPqhk9pnbsuDrHqRs3tnbM6JpR1VUj8TYbgRPSID2F4+F9fcOEiY1OKI0TJzTU42PjcZp10lLouj2pesJkumqFqJs8oXqS+2mcaplUFE4RDjdNnfYMZBThmWlTm8QpU1CATVJQOF042zxjJvyPxcwZzeK06SjEHtYVzuJ+tsxunQPXYzOndXYLP3cWCrKFbYXcx7kN8+C1JvMa5vLzUZQl7Cqczx1cYKiPM28BL2E+irOCTYULuXeLWuFsgGfbFrcvWVq1bPmKlStXLF9WtXRJ++K2Z/FmgNZFvJSFKNICFhWuIs9Wr1kLTz3W1VSv517ns766Zh0+5LF2zWp6axUKTY49hdzlDR1wU9I5b+MK/kY0KzbO68SHJR0b+BsoNjG2FG4inzZveQ4+gq3b3GauCE3btuIE8NyWzfTyJhSdEEsKnyePXuiCg2D7EuF/LJZsx0mg6wV68XkUngw7CneQPzt3wTuXF6uE67GpehEnuuzaSa/tQPGJsKJwN91pe/bCN0GXpj5OVeAe2LuH7vDdMJAEGwrJu5e64Zhg337XZ13270MBgu6X6CWYSIAFheTHy23wivPKq8JdI159BYVw2l6mV2DEnOQKyYsDB+ET59Bh4ashhw+hGM7BA/QKzBiTWCH5cMTv1WvC0QS8hoI4h47QCzBkSlKFVMkc8Ans5C4l5IivB3CIrmLC6iahQmomXvbdohN5S52YzRNRHHGQnsVkjUYyhdTQv+SrZLbBxcRsQ4FEG9WoiZr+RAqpq9bkayZ4I22JnSiS6KZ2MUkHLpFCcmUP/CBed52zw+solNhDhzBoQhKFZHmn15N5Q3hmjTdQLPVu+L0BkwYkUEjjwRe8vqjVK8jxruIu6oabjxfNFdKIfrPXk7T4DEq8Z7GLqmjjUb+5QvJhCzywWIv68WrULXQEs9oYK5xPI3o14J3oumQb1S4+R6N+0+kpY4WMrVZTFp1WGvp8NqveTcdq44toqpDsr4F1x7HQVQvnCAw4zho6gmlNDBXOYmyRmlVL3NmORnXD1y4ynQ03VEjG1bzoIdeZdFC9+lY6gHE9zBROZ2wBLDuvJBoPFuOwGhIvMFy2MVPI2Fw1dZ9gRB+HV2HGmTfX7CIaKZzCWAPsOvvgSWqouZsGs/VFI4WMtahLaDjpFJ/9MOTMazG6iIYKZ8Oq0wU/UkR1DWdnppCsqorUYF5UlyqYMqxOzRQ2yxXeF10n0kXOhs9pzkjheMZmwGYWl9B3EWeYBKUYKGSsSQYhbIcPKSOXbWY2GVxEI4VTYdHRWF1KwhKYc6ZmonAEY9NgcCs8SB25vjjNIEBMXyFjk2QgUCrj3jDkWPiZSfoX0URhNex1xlrhtUGTHChWZ6BwGGMTYG4e7GeA7EJNYEw3WFNb4XDGJsPcRpjPgI0wOZmx4XAkLtoKGauX0YZFoixssgIm6+q1b1MDhXJYsQ7WM0HG3dAAA47ERVfhEO8xrIHxTKiBUXoQNWPDdRUO9eb4qF7LDll/T2RsKFyJia5CxkbKkOaIUK50WA+jjSN1b1N9hbIf/CxsZ4QM86O+PlyJib5Ceb+0wXRGyIVY7TZfX+EomFoM0xmxGGZHpaywj1ertcN0RrTDLNXgej5rKuzL2GiYymjkJJEjqNGM9YUz8dBU2I+xMTC1FKYzYinMjmGsH5yJh6bC/ozVwlQmExgesgqvZaw/nImHpsIBjI2FqWUwnRHLYHYsYwPgTDw0FQ5kbBxMLYfpjFgOs+MYGwhn4qGpcBBjJRhZcNTogrFBcCYemgoHMwZLzkqYzoiVMOswNhjOxKOiMIfyv0vLv6Yp/9ai/Fv88u+1lX/Pu/xHT+U/Av6/mMUo/5mocp9NLP8Z4TKf1f+HMFbylZl/wp14xFeo0uiUenWNo3GnxlX4pii4/ij/f2lXSMGbcKwo8RSKXAkjp3Yfqz1Of5R2lZu1nJgqUvfEDG2Po/AtXt6yHtHlbqY/SxupwJqp+90jxm5vwcGCFFf4Ni9rdS/CoHhvtLTRJm4PdWYvz7zA3oaTBSiqkGdUeaf9XWGAEH21UkYMqf7bu+3v0EEL3IymiML3eJENckhIHHufXihl1Bd7/xgOnDHUdDD2HlyNorDCD6iEf32IAl1O0kuakXsjT1VvrNneUdt4Gu1M3enG2o7tNRurT6lsXwXxR+6xkzjgfPgveuEDOBtBQYV0+vGeMygNnOUm40df1jec+wifDeWjcyrbVyT+6EvGzuJAcKaHV+5wN5wCCj+mc08FLyBx/gK9HC+CdlJvV6xcSnO6epHtKxx/BC27cB5H4MNT9OLHcDmMaIWf0JmffoZyfFzkRotHQV/qDubJKMKu7ks4MQ91CXkUNLuIA8Vnn9Krn8DpECIV8oRyPWGZ5CZ/Tu8UiWRvaI3IQVeIxlZRc+Thj2Rnn8sOlUdjD70eHTscpZAEXj7hT+Zx5Qv8wTu/BXcjXN1zDe9pc23PVRTiEdiN4O3z8LH3xOUCEiMUksAmOWARdP2bSb+vc7uRO0qqu0/jHSNOd+cOO/07Shi7joNrgUQoNVTJRkkMV0jjiKZzOJtzg18puW177006iNgVNNuXLMCUifxuVAR2BbGb8rbaw/bfwJ+ccyQxYrwRqvBLasNu4VzOF6LZuiovjnjiw3Z23fZ1DXx0Xmu7tXHD0vr1y3nVThxfvr5+6YaNt9qu5aaIchlz2/0cEdjZ5dVwp+luHqmeG+IWufgl3A8SqpCKOoEzOSIxFSGTC1zhFzF/d94dOeHnp7a1/Wj+s6W4erS9VS4T+Fl8Bx8I7M5jN6/gqFu8uQFHnBN0DPeDhCmkz34lR7l0BdQXKscUblcmZ4fl1z3eKeBYW3szrlohjje3t6memKSu52v+XmCHpde5kXNEt717oO4rOoaAACEKv6Hv6i7OCybzUA+ZeOgDu2Tv5XR9nPNnT/IubEzeP3k2pyV3ztzL3SXrVW9qZ7UvSchdurO+gQQ/+Qq/JXvf4ayc6SbVCh7k3Xr/Tuf7+Esy+SLv+iiK5aDlXLiY29TdD+50Zu+oLCq+usir8b+jb/RbiPCRrzBwFh9T+1A1yQN+5O1W/x7/uuy93sB7BSBmDlri84brgXRaXrF8tzpjD3DE15885IyDezUgwkeewudpcKS+uoNuIYrbeN25IbZvexkHfFxpFRWRQC8HLXGzVdYlAXjGAXZENQ9eVctRV7aTBlf5iV7yFFJL+BBnOJ1iHO1HVZejf6AjX9YIxXalzyAHLXEzJzcdh2eNYD/IZb3cNaHV6oI8pFIgwyNX4VtUj+Lz7qRMkDvqitznh77MHy4HVdfSMAct0eDPq8XhmT8YU496nWxJJM14w3GoPs2bu8lVSM+zSmIYlq6kB+85d3/kh77sLcSNB7wGIpLkoCUPHvi7K272Fvajqt55RzuISoOylexDiCJH4U++MXQHzg/wtWoVHoqv0peBxxmN3ApJc9DSI6fuSIJn4GF31KNzRjSUQVStfpKxnyBFkqOQPi2Lithnfw9vO84j/pV7WZTu3uePJpE8By09dPfVJeNZlFjLIxw5DjWTeai+3UM6gBRJnsJF+Kw7ZRCC1/T18kOZCeuhuGtt5aCluxLfNM+ExVive0CI5z8PNa1CZ0OKJKjwZ++z46J6kytVK3VePKhuNrNH7uNvLQct3ZfisvFsZvSgqQ7P9+HBZldlHBNdl58hBgQV/uJNTT7CufkcwCcc51fRPTxwyDnf61YSNnPQspbe8yIjHXWIf8U7jiOOQ5B38VbGfoEYEFTI2G+/46MFsl2oIZuzTtxSR1rdWtdyDlq6dK2i7lrkXejIFBWH8YHff8u9TXMVyoq34HS2V4F+Jp57V4f1HLQo+J43HSaq1XDkl0RfNsSAgMK3vY5YgbII70vtUFVbCjloBfe8O7/Qmqz81qmDF1zMCCj8IxDUUYBT+BTR4SpJJwctf9X3aPOp0Sh8QTB/QI5LQOEn3rxPYPCTR57C1HLQxlZ4AZ/Zlzt5GlD4J2Oyskf3K4LcuzTFHLRx79J38Jm1jP0JOS4BhX8xJgcvl3FiKLk1Tao5aGPWNJfxkSuM/QU5LgGFMaO481qLdHPQxmotouPADa5hSIuvSCMHbawWP+Y1jPUchvfaXNLJQRuj1xb3OYxVl0b0vDlp5aAt3vOOW5fGaQ8jR09p5qAtNnoi4rWHMfo0BUbAYVMCxuTkoC0yAibi9Wli9EujZzHSzUFbcBaDE69fWnxsET0TZfUKcoI5aAvNRHHiji2Kjg8jZxNTz0EbPZsoiDs+LDbGj5wRziAHbeSMMCf2GL/YPE3UrH4WOWijZvUFsedpSGGhubbolRn3fdvEWZkRaMy1FZ4vLbC6lg5FV9eA+q6Lz5fSRYye8y64QpoORVZIgc6cd8F1iyKr3KlQcJUb6K1b0EWMWnsqHqmQAgUiFSSaa08F1g9lv6hQtIl9IqNNFKr+ibl+yKvT8DXgeBFD1omIGBLvcbTXgCPX8ZUmbqlUOWiDXnAM1vGjYjHkIxAncs8qqmsYiNwTlYFZLIa4T0PiaWS0QczoS3uER1828gPDeBohMS8m6hIONCJobREeQXspQUxUaFybbAw1o6BtEB4F3Z0kri0sNlGOBA0i2RMTGsm+K0lsYlh8Kf59knYjeOjHl4bECIMnZ0eJh1GMcGSc95OyK8iHYZx3VKw+r85Kv7PLj3Gsfvh+iydhd97xQMhtgv0WBC8uuGdGNLql3mHpi2dJtmeGyNv3xB/Dku+S9R7ExPue8veu8V2ysvNbqp3O7Cj+trF3jeAderX/sJMPPEu9W51dFfWOpf2HhH8PqRiVye584WAGy8j6W8xB0UjV4h5SwtsHzNv70meNYG129wFz5F5u3oEvfeYP5m7MtLiXm+Pux/8P/edbqMuS3IVNy/vxOTKnQukz8Pw3lZwKgr/Z316tVslBa5lKDtpINBVWctCmRyUHbSSaCis5aNOjkoM2kspdmkMlB216VHLQRqKpsJKDNj0qOWgj0VT4uJKDNjV8sxhwJSb6Cks/EwVXYqKvsJKDNh18M8KVHLQ56Cqk27TUKzNwJC4GCsv9Fx7L/1c6y/+XVn1tfpn+Wi4pLPdfPC7/X62mi1jmvzxOCsv91+PHlzL6Mjq6KwoDhXQRSxdBCxc0MFNYuihouKCBiUKSWKpIdjigg6HCUu1GgAM6GCmc4tv3kOmOkilwQAcjhXQRS7MrCOa1MFM4vTQ7u6bDvBZmCgPVaXa782BcD0OFs0qxw3IWjOthqJBfxMx3ycK0JqYKSWLWO51hWBdjhfOz3q0eMxQxD2OF/D7NNOMAzGpjrnBhtlkjFsKsNuYKH6/KMvPHKhjVJ4FCfp9mlr0FJg1IopBLzCgDDwyakEjhJpZRFqVNMGhCIoV8834WmbDyN9lrkEzh4x1ZZDPbAWNmJFT4eHf6Gel2w5QhSRXy2iblrIIwZEpihVxiqpkhYcaY5Aq5xBSze8KIORYUcompZWiFiQTYUMirm3Sy7CasZARWFPJGI41MycmaCWBHIW/67We7TtTQKywp5B042xnLk3TVfNhSKOobq1nnUWxi7Cnk40V7vxxgPh7MxaJCPupnln79wXhEn49NhdhNm/wXPEwnnUKxq9B9GpP+CguKsoRthXw2nCX6JR2zme1orCsUyzaE4a8hGS2+FCQFhWJ9kTD4RSuT9cFipKKQEA5r/ioZTrVMWgrdJEWcmL8spx9GEpP0FBIj4H3RXwfUDuXSIFWFxLDhEBHJcN1wSk3SVsgZItMx5DFUM2bbhCwUuvTp26//gIGDBg8eNHBA/359MzOcncJSUVH49FNR+PRTUfi08/jx/wBhHXiYL5wAyQAAAABJRU5ErkJggg==;fillColor=#f5f5f5;fontColor=#000000;strokeColor=#666666;" parent="1" vertex="1">
          <mxGeometry x="790" y="690" width="36.89" height="40" as="geometry" />
        </mxCell>
        <mxCell id="sCURncKMLSgWhhkJFP17-8" value="" style="shape=image;verticalLabelPosition=bottom;labelBackgroundColor=default;verticalAlign=top;aspect=fixed;imageAspect=0;image=data:image/png,iVBORw0KGgoAAAANSUhEUgAAAOEAAAD0CAMAAABadrFgAAAABGdBTUEAALGeYUxB9wAAACBjSFJNAACHEAAAjBIAAP1NAACBPgAAWesAARIPAAA85gAAGc66ySIyAAABI2lDQ1BJQ0MgUHJvZmlsZQAAKM9jYGAycHRxcmUSYGDIzSspCnJ3UoiIjFJgP8/AxsDMAAaJycUFjgEBPiB2Xn5eKgMqYGRg+HYNRDIwXNYFmcVAGuBKLigqAdJ/gNgoJbU4GWikAZCdXV5SABRnnANkiyRlg9kbQOyikCBnIPsIkM2XDmFfAbGTIOwnIHYR0BNA9heQ+nQwm4kDbA6ELQNil6RWgOxlcM4vqCzKTM8oUTC0tLRUcEzJT0pVCK4sLknNLVbwzEvOLyrIL0osSU0BqoW4DwwEIQpBIaYB1GihyUBlAIoHCOtzIDh8GcXOIMQQILm0qAwWF0zGhPkIM+ZIMDD4L2VgYPmDEDPpZWBYoMPAwD8VIaZmyMAgoM/AsG8OAMKzT/6r/s5/AAACHFBMVEV9p74AU4E3eJxBfqEOcZ4Qd6QReaYBVYMFVoMoq9YprNcIZJEOXIcnqNMprdglpdAFXYtKhKUajLgXhbIAVIIHYY8oqtUEW4k6ep0WhLATfKkEXIomptIkoc0CWIUReKUOcp87ep4CWIYjoMwhnMgMbZsgmcUmp9MKaZY1dpsBVoQfl8MPdaEdk74BVII0dpoIZJInqdQFXowMbpsHY5A4eJwbj7sdk78dlL8XhbEmptENb5wFXosfZ5AelcASe6gkos0NcJ0ko84DWogtcZcPc6AflsIorNchm8cinskCV4UzdZoJZpMLbJkckb0gmMQ2d5sFX40nqNQdkr45eZ0lpM8elcExdJkobZQjoMsLa5kucpcXh7MelMAWg68mp9IelsEDWYcGYI4fmMQZibUnqdUWgq8QdaIgmsYlo88JaJUqb5UQdqMCV4QhnMcydJkZirYUf6wYiLQincghm8YJZ5VilbEOc6AQdqIReKQZi7cPdKEmbJMFX4wVgq4BU4EbjbkDVYIMbJoYY4wHY5FUi6oGYI0kocwckLwbjroIZZMgmcQZibYXhLEHYpAGYY8jocwVga0TfaoSfKgYh7MSe6cDWockos4ai7gIZZIjn8oEXYoin8oUf6sJZpQKapcinckDWYYLa5gVga4ajbkYiLUTfakTfqoSeaYgmsUMbZoZircWg7AQd6MinsoHYo8UfqsJZ5QGX40AAABVYjp1AAAAtHRSTlP//////////////////////////////////////////////////////////////////////////////////////////////////////////////////////////////////////////////////////////////////////////////////////////////////////////////////////////////////////////////wDv+FEKAAAACXBIWXMAAC4hAAAuIQEHW/z/AAAV5UlEQVR4Xu1d/ZsVxZVOuYOz97LcYWGcUQcHHBEmM3DD4IjuDKt8rFwkAgEdEgwwGeJEYMUVkqwQVsOy2QARFDAiYoSAwcVEN8nyD+ace0+/dT+761RXN7gP7/P4Q+F0V719qs97TtXput+68/8d9xl+83Gf4Tcf9xl+83Gf4Tcf9xnW4VvmXsEDMiInKBjK7e8FaCi6M/w7Y7rmPHgvoNsYGZML3Bn+vTGF4r2AwtyMGP6DMfNK9wCKPfMzYviPxiyQTu4qigt7M2JInuahPunlbqKn35iHZUguUDHsfUR6uYsoPqozoYbhw8YMLJJ+7h4eG9SZUMOQBXFxUTq6WygsoVHIeNygYfi4MUNPSE93C0tJDB+X8bhBw5CN+GRBulrWmyPmL5deC8PGfFtG4wgVQzLiyKj0VVrB4VNOWCl9llaWlXNUyfDOd4xZNSadzVst3WePp6TLUt+4MU/LWFyhY8iKsUZ6Kz0j/WePZ6XH0j9RQ0biDCVDUoz5E9JdabLWf+aYlP5Ky9dq3QxByfDOPxsD2V9OAWIeeE76Kz1PDRmHO7QMaZ4OrZMOSytrI8gY66W30oaNHibUM/wXY16A7D8lg8gUm6SzCntvGYUCaoZkxJHN0mcuzmaJ9FV6cYuPCT0YfteYlyLZz8GIVuy3UkvGoIGeIRmxe5v0moMRIfbb1fFaDR4Mv2fMjp3SbeaKAbEfW2XM92QEKngwZNlfGDmbrI34jPRTelmZFgI+DF8xZuOUdJyxEWHCeST2qrQQ8GHIRnwwMuIuGUs2QLz2CDWkdyW8GFLstuVF6bq0vjaWTIB4rcdL7KvwYnjn+zR/IiPy/MkIUIoiif0PpG8t/BjSPC3DjWfnbNDF7iHfOerN8GmSfSwtZiX7cDOVV435ofSshidDMqLZI/2X9tYGFBz75P6lZSP+JvRm+Lgxa6dlABkpBt7CvpeM+a70q4cvQzbi85Gz+VFtSIGBt3CbbrOpCd4MyYgzSBS7ZFAhYcV+v2e8VoM3QzZiV5Rj/Lg2qKBAvPaab7xWgz9DXlpEoviCDCscYELeiXlF+vSBP0NeWnxpVoYRfMkGbqb0E2pJj15IwZBlH1Mp9JIN3MwTfpm9RRqGJPtr8ajDyj7maPF1Y74v/fkhDUMyYu9CGUnpWRlbGMCEB1IpBSMVQ8oxZg7KUILKPkxYOJRKKRipGN75V2PekLEEzTHweu9NbcKUDGmeHn5TBhMwx4AJ+0jsVQVQbZCS4b8ZM1yR4YRzNjDhW/rNtBakZEhG7MZ4QhkRJpwe0G+mtSAtwweMGY9kP5SziR5Z8Ui6eK2GtAxZ9o9GOUaYRBEm3DDju75Wj9QMSfYHemRIYYwYbaYV51BDekmB1AxZ9h+NjPhcbYypgM20n1JmnypeqyE9Q15aRA1K+qXFtVF5YJHu5Z/ZWzQylF7UWBIliulzDCv2pBR+aDR8A0P5Cz26fybDSp1j2Hjt5/IvHmigWM/w342ZfPvYcSXmcLT281A7iljG/wU1uk9IHwocG6YLhVAV9Qz/w5jd66Z6tNhEHqEXpafpZB/L+PPeYQ+mH8yGF9893JnhL42R+6tQWUzC/A7qh1Mpxl65SXEf3XM+lisVKJxsCtbrGf6nMZHbV2Gqn8b2vDRSbUY17MT0viYNFRadagqE6hn+lzHQbg2Kj9BN7Y5iCsWIxL7yIN3xVz4VycVdzYFQPcP/NuY4PIYGY7+m0XVF9h+tjdYDEPvTg2TCM9JQYeLJJhM2MCS1mFnmNU/P0tzfslQapbdlwGr8SG5QYIe8FVmZApWzQ82xbBNDs9WrzrnwG7r0UDSrfGW/S64v/YweWPd70lDhYLNWNDHkRd5zPo+u9B6PCctHfrJvK2dY7F+XhgqF861rjw0M2Yjvb5C/Lj0zkAhEIMUTdOkHUAwv2bc7MRSvDT0mjdKk9BUDXHlhP91HuERoZEhG7L6o2fnEvR+j+W/du8/SIp7W7EN0q0uRP3C4lY30PqSp1JyONDLkaqC18BgO4YldfOfi1v40S4sNZRf9KGJ1eMwI1t9kYRYmQBNDmqfl45qCJzy/iQFqHZGGh7OB2C+iS8u/jUzo8EpjCH0nSClaMspmhpSy9z+rmCH2Aa6h24+gBkXtbHbJhaWPqGGryhxMCOOPXm63S9XMkI14CoqhMeLYXGpN+i4tQuw/ppik+2VpuLwoMP5Yc7xWQwtDMuLQlciILpMNzmY75RjdUbmrNsdAmSx/E/MbRS5ma27OkFK0WbhqYUhG7J37sVzlMtmsjD1JLRtMqpwNymR/SsO0Yu/wmPCApz+hlnCoRyvDh6mLdzWTDaO7SopRviINnWJEnPo4JtFMdbwklXOkoi1uhtDKkGV/7Wm5zmmyRTOsuvz3KfRDYcQTcklplATt8O+k4TKD4Og27OiwPt6GIcl+2eYYDkaEl+j5lKb4Z9FL7L60iIk+9j61HpWGixewYn+x0xZHG4bsbGYg+y7OJsrMSxepMYOwzzlRxLvEinMZ1ztMApjwKj3c9lsc7RiyszmFzQiV5rINXoheo021/5sIXD5NwzSaXWUoxezxtkrBaMuQnM3Iy9Fkc5mneJQcNNsaFPb8ybCR3z5q2VoyjVIs61yS0pYhf3FwDbLv4GywUF24Tq3h6CV22xbGHD1IYl8+Kw2XuWOVYklHE3ZgSPO0+6hGMVbIn1Y3G3Sft2GOljgD+1X08Z/GzRS3xexSdWRoPlApRhRWVj/deSgapsvDgSF+T2JvP+BkugnAlT1bO5uwE0NOFC9pEkW88wdvUAuVocmKAUNUblILE/y92v+Ng73yXMviTB06MORE8dOlmvAUa7mf0/Psx6pkomLAEKM0v219PDudBOAxfjw3xoQdGbJirMCqhMNbDyNO8+N4w/XhwBB9HFZiRVLjSAsX6dl0NGFnhq+Qdq/UKAbStD+QYgy6Rl4w4RqK12z5kcaRXuUPkmXUbdCRIRtxK9YSVLLP1rjpFvbhomkKK80laejitcUdQm5BZ4Yk+4O3NIoB2efwuRtOMfbh4Jrf0qv0qaZwHFduJrGPK0npzJCNOBd1zg5vPp5qkYuinRQDl0xdppZmhw6vfd/6ODdDiGHIsduRaLK5uFO8Gb8jZev9gzTixouQ/TNqjCtU1EZ6o4MJJcQxDFn21/5ebuTyJtpuL1HLYUEQhthN3rCMtSiNm5l3iFoy3vaIY8iJ4jHkGA5vIkbMtdnJS4s2cOYQfVix7WFfCN4TinEzhDiGnChuhMdwmad4/d+il2NwtzQ6GQWG4F0PVUaCfqbmJp4EEsuwqhiaRHF1FCPsfIhaS+Ll1Pp73onBlw0OWSWurCykZyNj7YR4huxskM64zNPF8qelXawYeLPaOhsYYg0J2gzifIeVAVy5zuFjk3iG7GzGoVIuOUZUWMMHycTXoMAQXCZrNN+k2iu/6LQ4U4cEhuRses97LS1WFQMK12ZFAobYQ++sPYBKIfbFpS71pwkMeZ7OvyB3dHI2kWcq8mc0v+5cgwK/u4gXZz6XhksBJ66cdyxB7KtIYkjztPwREkUHZ2OXFrlg5POOkw/Z1v/QMPdrUtEoxC/upR6SvxdKZMiKcUCTY+CsFV5a3IhsocmBwBCPzdCDgDfTxGuLnnIxYTJDVowur0RxJ3uQNzosLUZulr9h1lXFwfgL6Nk4fPKVzJASxRsrvXKMs/SM7Y5ig5BjLvPpZHYnRvMAp645mdCBISvGdRQ8OYzBKjmvvLzaLhizq4+8X9UVPT8HT4ZIr7LncFxmb+HAkBRjy1HNPGqIxsrtEkWYeRebGdGdg9jj3us+oJaMMBYODKuyD8VwMKKNqHlJsE2iaCWblwNuR37MQSns/LhETy8+5Ba4MCQjjnyhMSLesicaalAwCWHCt6hxWVPAgSt3k4q6ffLlwpCNOIDPmxyMaP3dZzQLBxD2yaVWslfTA/hJZEJN5UxlhUO8VoMTQ04UT2jWscFhggOWOdKILrX8qfGOYnHGpthf3nD+XsiJYXVHEauFukSRnvUNfKxQNWJj1INdcQexh5sZ40clY0uCG0OW/esa2be+hHcUbSEljwxi/zo15ireb9y0uG3E0c0QHBlSAL7FnpPsME9hxOdoMCPbpcEPBzWWfGCJrWfUmHDiGrVkZIlwZMjO5n2v9eEKJ4qf1EXWkT4W/kj/46Yi4rUm/JPChM4Mydl0f6WJ3fDAOVHstqE1Ekg+ncwuzjg8NEyLnnFqybiS4cqQPzQc0CSK9olzDcpqZLjR29zHZcX4iFhzw8J5V7GvwpkhO5uvNYkijDjF+RG2wiKcIaW0Z0yqxJ5UVPF9tztDcjY3DkgnLvPUitdr1LI1vzXwgSW9yOw1aeHsh85iX4U7Q3Y2k141KMv5YwVEnzXsoX9Slckis9+u/DhYwZCczaBfDQp/aGc/b2PwonjvL6Th8rhspNelM6GGIRtxGNvXDqNCFtjHmwuvQtvJELfpH/YjhNCYcNtlnQlVDDnHUCWKL8ifljaTgNkalFLpNIs9TKwx4cSwW2ZvoWHIRhz/X+nKaX34x/K31bPi9+MlrrDrPKR4VjazP0fq6rA4UwcVQ5b9LzQLf4jQ1tHcsorx5mGaDZrPTqE8GzqUycZAxZCNOH+ZdOZkRETZ9TuKfDqZWe8Tr1X2aeK1GnQMOVG0S4sORrQu8B1qzamx4gNLhpK23uqBN/Z0fNlFW+gYVuvcoRguiSL2sXl3okaruo56u/qPBE28VmGxV5pQy5Bjt+HmVYk42GiS49A/snfh3VNbNKXJ7K9S/KdSCoaWIcVuh295yf5zNDe5BmWCxR5nLmrSwsSyi7bQMmRn82esDzuMz56RwDUoc6eLvJ2xQ/EuYxYUN8UV6HWEmiErxhFNoghns5s0ovfEMA2zjNOyNUqxvPXrSReoGbIR++EINc6mqhg0z4xZFWm/Ks88S09I62YIeoZkxN4TmkQRRuS1NcYIkjCHL4ZhwglWURmDBnqG1URx1MvZ8BmPhK1RvObw1bf1xbf0Yl+FB0OepzfhwTWKwWlvfZ2Nw6GgeDoX/kwtGYAKPgw5xzjpZcRnSDFsda3Dwa54OH1HVIszdfBhyEb8BPm5g2LYqUbucKN7hXTds9msW5ypgxdDVow9mkQR7mLpTC/K3TSbaWPuOzHN8GJY/XmEq9K5yojFBaMQe8X6WnETuWF1vFaDH0Oap90fYjPKYagwIl5flwcDnZmO+6AiAZ4MeX0YiuGw8WejZyB5cuOi4pqkMtkYeDIkI5YnMWoHI2KeRtDEaz2JZbIx8GXIO4pnIyO6nLUHr1iDKl47usVTKRi+DMmIvdc0P+OBHKOKIut3AmDCg65lF23hzZBit5GFikIYW11LWO5A0JrwL75iX4U3Q5b9D1S/3rUaE3WlwwOxvuk0F41Lpx7wZ8iy/6FG9sn7P7KsVNq+z+lvMUcL/AGsvwlTMGQj9qNqzWWeMsq19CIR1vduvuGT2VukYMiJIurPneapAjDh2KS/2FeRgiFXLR7GORhu89QV1s3s1f46bjPSMOR5OgwPGdSIMOE01zdKd35IxZATRZyDEtKIMGHhpN/iTB1SMWQjjqPwziGUdgVMuE5TOdMe6RiyYuzTKYYLrAnPey7O1CEdw+rJWaqlRScgNLjquzhTh5QMOTy9jUQxkLOBCWc/ShWv1ZCWIf+Onmpp0QF4Cw9w7aZ05I20DNmIk5rNqGTAhGNLPDbTWpCaIa8Pn9TsYyTBZvYrfTbTWpCaIRvxr0gUHT6ITgLm6LwUizN1SM+QdxTPR4qR3p1ijpaueG2mtSA9Q5b9/VhaTP0mwoQTq4KYMARDln37eVvKNxEmLPIHsAFMGIIhG3HgSxlY2tgNYr+BzyeSDlIhBEMyYnk9jOiwKtUZNl67lC6ztwjBkJcWB3GYYxpnYxdnXtwYZo4GYsjz9FqIRBFupsBHkcrNUyIMQ56nf0ofu1k3sz2MUjDCMOR5+n+aGpT2sGLPnyXKrdMiEEOap2Wcg+LrbGDCyrY0y/hNCMWQjNiP0lNPZwMTTvlVzrRHKIYcnh5LlyhapbgV0IThGFKieDldoggTXlhFLbltegRjyEZ8SvNlVDOsCY+kX5ypQziGlGMMXkmRKMKESz3KZGMQjiHL/kuaI5YbARPOHg+R2VsEZMjrw+96Ly0i5B71L7toi4AM2YhrfQ9lhwnHWn5kJCVCMuTYbbHm5CwLG3K/TPGab9lFW4RkyLK/EZtRqvO8bbwWKLO3CMqwqhiamqcImKPFc6QUgUJuQViGJPtD+LxJEbvBzUylKrtoi7AM2Yif6NeHYcLKvrBKwQjMkGS/e49a9mFC/gA2pFIwAjNkxVgN2XecpyjQK3wU2s0QQjMkxei1NShO89Qu4y8lsQ+qFIzQDKs5BmTfaZ5CKcZizh33R3CG7GyWaD5WsEqxK9ziTB3CM+QcY5MiUYQJJ05RS24SEOEZsrO57q4Y1oQLBoMrBSMDhpxjLHDOMWDCg46nk2mRAUM24irXQ/lhwsJXjqeTaZEFQzbiRUcjwoRX+XsauUFQZMGQjbgDRyzHGhEm7Gv3o3BBkAlDMmL3104nZ8GEX4baTGtBJgy5kOgyFCMmdoMJZ4OUXbRFNgxZ9k8lK4bN7DcFKbtoi4wYVpcWE2Xfxmvq0y7ckRHDqmIkrQ9jjpbOBM/sLbJiyIqxL8GIMOEi/WkX7siKIRvR/npbW2dj47WjWSkFIzOGnCjejk0Ukdl/TGLv9/WkCzJjWK1ajDs5y8Zr/AGsXJQBsmPIitEVs6NoF2cGjHlArskAGTJkxcCPtrYYESYc6/yjcEGQIUN2Nh3PQbGLM8uyWJypQ5YMOTy90iHHgFLMy2Rxpg5ZMmQj2s/bGnIMqxRxPwoXBJkyZCMeaVvwZsX+esYmzJYh5xircYBn3WaUVQo+nSxTE2bMkOZpeUWbr9phwgvjWZswe4Zm495IMWDERrHP1oRZM+TYzf56W2REmHAp/9qa/GlWyJghx25bzjV9EA0T9n2dZcgtyJohz9NVTR9EI15jsc/ahNkz5ESx8eQsa0Iuu8jahNkzZCMO1B+YaRdndh3ONl6rIXuG7Gy+rovdbLz21xzmaB4Mq84GHysst/HalaAFeh2RA0Oep1sh+3AzPQG+nnRBHgxpnm45g0RRoDx33B95MKwqBmRfcDoHsa8iF4acY+AclBpmg30Tk4RcGN75tjE7IPuM4oGBPJSCkQ9DmqflS6haJOx0+lG4IMiJ4dMk+/bX21x/FC4IcmJIRuw9YQ8Zmr6ZmwlzY0iyP4MjlisnM6mcaY+8GLIRr0eK4XHuuD9yY/gwyf6tWnha+CqfeK2G3Biy7I/XjtDYHb5MNgb5MWTZ/wsbsXA7p3ithvwYshFX86+38S/A5mfCPBmyEd/eWZjlD2DzM2GeDPnAzKFbfWdCf1CRgDwZ8jztP5RVdVcn5MqQ5qkp0385ztGcGVYp5kwwZ4ZVivkSzJth7rhz5298DDuu4EO1NAAAAABJRU5ErkJggg==;fillColor=#f5f5f5;fontColor=#000000;strokeColor=#666666;" parent="1" vertex="1">
          <mxGeometry x="720" y="690" width="36.89" height="40" as="geometry" />
        </mxCell>
        <mxCell id="sCURncKMLSgWhhkJFP17-9" value="" style="shape=image;verticalLabelPosition=bottom;labelBackgroundColor=default;verticalAlign=top;aspect=fixed;imageAspect=0;image=data:image/png,iVBORw0KGgoAAAANSUhEUgAAAOEAAAD0CAMAAABadrFgAAAABGdBTUEAALGeYUxB9wAAACBjSFJNAACHEAAAjBIAAP1NAACBPgAAWesAARIPAAA85gAAGc66ySIyAAABI2lDQ1BJQ0MgUHJvZmlsZQAAKM9jYGAycHRxcmUSYGDIzSspCnJ3UoiIjFJgP8/AxsDMAAaJycUFjgEBPiB2Xn5eKgMqYGRg+HYNRDIwXNYFmcVAGuBKLigqAdJ/gNgoJbU4GWikAZCdXV5SABRnnANkiyRlg9kbQOyikCBnIPsIkM2XDmFfAbGTIOwnIHYR0BNA9heQ+nQwm4kDbA6ELQNil6RWgOxlcM4vqCzKTM8oUTC0tLRUcEzJT0pVCK4sLknNLVbwzEvOLyrIL0osSU0BqoW4DwwEIQpBIaYB1GihyUBlAIoHCOtzIDh8GcXOIMQQILm0qAwWF0zGhPkIM+ZIMDD4L2VgYPmDEDPpZWBYoMPAwD8VIaZmyMAgoM/AsG8OAMKzT/6r/s5/AAAC61BMVEWjo16OjzuDhCd9fh15ehZ3eBJ2dxCUlUV1dg6pqmmJiTB4eRN2dw+Wl0iHiC+oqWeTlEN5ehCAgBSOjRumoyfGwTfY0UDi2kXn30fr4knt5Eru5UqJijGUlUR4eQ9+fhONjBqppSjb1EHs40ru5Uvv5kuKizOQkD2Hhhezry3d1kJ2dw56ehCGhRahnyTg2ETe10OQkT6FhiuAgBO0sC3o30d/fxOFhRaioCXKxDjk20V+fhLo4EiEhSl5ehWopSjp4Ui3sy+AgRR9fRKTkh27tzG4sy/q4knq4UiopSeGhy3LxTns40nHwTeHhxd3eA+emyLMxTnm3kaGhhfIwjfMxjqGhyzWzz/a00CWlB94eRCgniTQyTvp4EiVkx7X0D/KxDm2si+cmiHNxjqNjjmmoybVzj6OjRqQjxzEvjXTzD2ZlyCloiaOjzp8fBGxrSx7exGEhBWvqyvf10N7fBGqqmqkoSWRkByfnCOIiBikoSaoqWjd1UKDgxXGwDaBgRStqire1kKIiTCbmSGtqSqsqSqcmiLj20WamCGXlR/l3Ubf2EOamCDm3ke1sS7k3EWMixng2EN8fRLh2USLixm/ujOLihni2kSKiRjk3EaKiRl4eRSSkR2LjDTIwjjc1UKKijKrrG2uqiqqq2u4tDC9uDKCghXOyDrPyTunpCfY0D/Wzz6Sk0GrpynOxzrUzT7FvzbNxzqqpymTlEKJiBiwrCyMjTZ6exGUkx6+uTOLjDWjoSWjoCWMjTefnSOEhBbc1EGPkDyCghTZ0UDCvDTCvTXZ0kC3si+PjhuRkT/TzT2RkkCQjxusqCnOyDvRyjydmyKFhBadmiLSyzyMjBrQyjzRyzyrqCmgnSPFwDa8tzG8tzLDvTWNjjjUzT2ppiiqpiihniSYlh+RjxzBuzTBvDR/gCCBgiTa00G7tjHHwjfDvjWTkR3AuzS5tTCWlB6SkBzJwzi2t4CWlkd8fRt3eBGAgSGgoVoAAAAlxvN7AAAA+XRSTlP//////////////////////////////////////////////////////////////////////////////////////////////////////////////////////////////////////////////////////////////////////////////////////////////////////////////////////////////////////////////////////////////////////////////////////////////////////////////////////////////////////////wD5s3lGAAAACXBIWXMAAC4hAAAuIQEHW/z/AAAXpklEQVR4Xu1dfXwUx3m2k9ie1pcGAQe6uyAJdBcjnYC46AukFlkCgwvOgTC1EV8R2EayCAhEbXAtg4NjZAEBI/NhSuzUDV8OxLiGQGo3TrCDCTapa9w4Ia4JidsmbZrW/dSffd/dd2bn7nbvZu9m747+eP6RZm5md5593nnnY2d2rhv8/45rDK9+XGN49eMaw6sf1xhe/bjG8OrHNYZXP64xvPpxjeHVj9wxvO76T3zyUzfceOONN3zqk5+4Pof3pb8e4ibmjJsojYdIYPg7v3sz3TsL+D5NV0vNjsNi+WkfRWWBG37vM3Q1gsxwCCXSgPjr+YqGDhvuHzGyOBAMhULBQPHIEf7hw4YWCUJDjPQU0ADzeiYshp+lX7Vg1OAo+q+ktGy0f0xxeTgSj3B58Rj/6LLSEko3SklvZXyOWFkMb8Fo39iKynIqQRYIR42bwPWqxo33TwgkkrMQDkzwjx9XJbR0TqmM4OcrxhnXu5WYEcPfh6iJ1cWUKjvUVNTiHaJFdfWTJgcp0hnByZPq64qMh9JQ0UiR2aG4GkvwByY1k+EfMlY1pYl+zw5NtzVjYX0tU6dVBiguHQKV06a2GA9+4u3TKS47zLijiLGbDW4Gwz9irHkm/ZYdZt35BVQj1jx7TmuI4lQQap0zuzkGOaNz79JQTwDzJjL2x5wh1MHmu+mHrBC+Z36bwW/BwkUUpY5FCxcYHEsWj9FQHSORJUAR6yIyBBP9IkVnhUXtaP6+hqXLajIpY7hm2dIGtNWGdi0VZiYYqsnwXsbuo8hsELp/ORpoVUdnqz2/B9q7qkpisVhJVVf7AxQXj3BrZ0cVXCNadrcOGVcw9iWDIWMrNTjRRau6oWyx1Wt6bNwnkPPxJsRE1GdLM9izZjWaatUqDTI2rkURrxv8E8ZWUBT42QcNT6EG2TlVPoT21b14WVIFBHZOl4zasFy0bDE+qmjH5ykCsc5Mr4Do+hWWXA8z9qfAEPoyj1BMZGYvJVTBbMoEKH90A0T4NmzsSXSgM7vMxI7oSnTioZ6NG/BpDfVLxqBOkbFeccXHGPsyMIQ4XqyZZhI1bKJMgJrHsfa0lXUmWDvIZ6ZNiSQhizvL0CUXfUVq/58w06qBUwzB/wbDNoood6PgfMoE2LwJq87avvtnUYSJOSr0THTNoTwmZt3fB1WIxfomUwTgSTOlEnq5+tDpNRjWUrifEqigjPIAtmAVjNaOjrfQOVsppRq2xnEM9Yyuhcob7ZhAEYDllFIF2yhPaQLDVvpdAeutOtJTBmXx9X51u+zgi93xQ2yVTTy8/au9WBl3PEURIOwXzHQq4JdqIIY7KdxIv6fHOKv3OPA0hGNjd8VVQVcei8PyEIjiXWPR9nfvoTD0NevMdArgDn1lYj2k39NiteUCNhsE9/rl5qtYvQLGo0t+TE3+vQZFqy7WKD+3xHoYpXBEsSnstQryDNaO2L5J8iiiOBMBTUhXhhHHpH1IsayfwupXFoTgf2D4Z4xxH6j47C1rKp4KQSAoO9GMLJQjzlJnmRT3W7QVm7MuSg5GeTMw/BpjYyimnVKkBs8PhoStlG/9sxLBmkwtlKOrhq4EmPXsenQ3m6xar3b1dkr9HGNfB4Z/ztjzFPMApUgJqxLOmoIeva5TMtEsLJRDttRAZx3e4g4xZGxcTalSgvcgnmfsL4AhVMReilF6RPMobST0DZxF2nBA6olqIBhPcdEB7A7GviFaonlmmpQQRnYQqqHJ0DeDohTMtI+SRiKHwBezhmreugKyqoIW5Mq4rRraNNZ9mIKRSJ+ZJhW4kU4HEzcYDmHsUYqrpDTO6BXVZADpdB+xnPn0bKughS6r5k0+gkONg6JZVGgyHqOkfmPiFBiCiMspDgeNqSE6V03oRku6eqyejD6CsjcL93RhZdgvOM8xUzhDjAXLUEJiGNtMkS9QKidspXSR0CowAd+Ob1oEXQ1M0sIy1PA3d+CtVoleb7oO4QuUbjI0NcTwKGPHKDYyhZI54FuULPIi2s6G41b3VIuTsSC5m+Bx9DZV91Mw8pKZwgmjKVnkLxl7mRiCiKXcIY6hdPZYSqkixfsg1L3GcqOaCcZRXLQGH+cJ4QE2mSkcwBv3phZDQpMhNPonKT7yOCW0xUuUKHwSmqnYfGtso51gHMUJ87Fvc5LXiJQibqREkZOMfVswBBGbeTueqqxiWL8EHmq07pCoGup9Yhew3HboEDb8p0ZQMJWI4rk0TTQlJIZfZuxx+iWFxxC3LD8NobUVYjzhCUGZYlMFjvmn8lqfQgXhob7C2GcNbiZDELFWGIWj1xctxZ1gNLHFPRTS207IsNqMnsVwS99dFHJWQeQoxuG9AWL4dcam0G+O2UVLEdwNoQ3PCj+qt52QIRQJPov+dK+4pdMzFRnuYOxrJjViCCI2PEM/OmUXHdLvQKVoGy4098DLcFjepnh4G1T9XRRyavaFhP3kSAGc4V8x9gr96pBddEjL98K9TiwRbb1XNooQRQ4vOQHP1Zoesm/2RT16lRwpgDMEEVtE3882O88dvg39WrUYMnlnowhhdoHqU/Bgb6eQvQqiHm3GCRqCYPjXjH2Xfrcdoojcja/BnYZVUshLG0VYdlo5DJ5sr/DfdiqIerSOsXuJl8UQRFy7hRLYDVH4wwxVwI3WHhBjUvfThu4gnmz5AWgxohW8ctiYjqhHE6C5JlYywy8x9gTPvozyWBAVYjI4tej+AQql7+lnDVG3BvbDsx2awh8uo1/C0CO4nljJDEHEU9+jNMm9Bj6qDLejhLvSum19EM82uAtFbOcqJI3WRY+rskqSUGb4fcae5P2wb1EuAT718QxUu2iHkNBbN2NCOJuBDni6Z/jkYtKkEu80h+YzdgtxAkgMQcSi1ylVZCllI4ja8Ab0Laqm5VBCWcRpII7vBxRK9ABCwrPm220OmeGtUtfvEOUjvEnRgXMQ2Cf6a7mQUBKxB8dsy/nc5Zvmrxx86Brcz9gPiRFCZggitolxZvwLu/MU+wI8n5I1wpHmQkJJxPI1JZKdnaefTYih6904lS8hjuFbjL3NS3+YchrgRhq+AIEzSyiUIwklEZecgdAF7mvizPRHFBkEKztKfAzEMQQRS/6GUkbeoawIbqSNfwsVYbZodXMjoSRi02wfY6v5zIJspu9SXOSiOTtjIZ7hUcbe42b+d5QXwY10IWRf60/R6HoELmLYDw1GjIsgmymfUC1/OkHCBIYgYuwQpZVWB/BnGH4FArtHUihnEkoijsSB26v8EeNLDRNi1cThRAkTGb4MnpL3qX9Mua3mfhE0hrH3eU3NnYSWiOXvA4MzvJpY/ZKLFBM4YU6wSUhgiCKKFWA/oeyiuX8d3FTLQgp43iOVIdrjhTDwi52lwO30qzVmmGlM5MchkSGIOJY/Ij5sEC8cqyEgXlgqvajSBv6Q+8sgUE2BF83fGONt3PRx8SugEYkMQUTfcUrP7bCEgsHl8Pw28j6B2stGXeAVJbgRzLSMlwH+RyygYOSn0K0jHgJJDIcw9pp4Q2j6Em4i23eCJxVGmjs/gxC+ZiF405Xcjqii8AYa/cQo4iGQxBBEjL5BOUhE3hoeBiM/wUcvuTVSqesPvsTHH7PZIo6nUOQHNhLaMBzF2Ib4mUXeGp4E8vX5MVLJTOuBBp+hN1tE7nhqmm0ktGEIIrJLlMcQ0Uf/hx+CKtlJgRwbqWSmneDQO+QW8VX6P/IzCBAHCTYMb2KsVqzwACJr6d+mWsZK+Rg510Zqmen3SqEY/KV1tzSTsw1+sNllZMMQRbyNcqGID9G/58Fz7eB9wlwbqdTt2AEenTcPb0vdcmwdiYEMO4YgYst2ygYicit4A66wgk8C5NpILTMN4XtqPgyut6y3Hzy93UYxO4YoYgXlAxG5ns/Ds/uA/lddPqURot/xAdgSXx/zpiVhBWN/T+WPgy1DEHGt1b/+kP6B4dQp7rZyXw2tinj2FGNP0P/nhYSb5RlEGbYMcWaRP6UIf0ihvdDnbaVA7quhVRFbYRi8Xozg6C9amDWDKMOeIdhpkbWy08R0cFUP8XFH7quhVRED0Gq1yEsFEQPx008SHBjeythlystxN5j/z7mjoQ5hThGje4d+Dv+LmRTC5fjpJwkODEHENr7whvCdKIvm0dHIrgbuLt6zmdiSMP0kwYnhW/IuDAMXpCeXD0djuZolYEEX6H/Cw4lzFxacGIKIMb5uw8QVxqr4wqJ8OBrL1WyuYuwn9L+J54AzlTsJjgyPwsiZOywD4FyG8rFxPhyN5WqahjL2C/rfxLqkuQsLjgxRRDHHj1jM2G4+sACrzwPESHw3Y6fpfwNnk+cuLDgzfBmGvrKI+xnrS57kyiXEIKfP6iwjwmBSiXMXFpwZgog+ed/lL6WFU/lwpZIzhYHqOfoXsQSKQ2W2QQqGQxibL4kIDMUETp4ZHo9jGIb6kzzwFUjBEESMcgcNAIa8h5qfxsJqLj6MY/hhSglTMhwF5i6WriFD/lYtP42F1Vz0yAzDHSklTMkQRGRijh8Z8iXd+WksrOZim8wQX5JReW2RkiGMopbzBgIZ8u4u7jbMB6ro/gGJYagszRdSUjJEEcUcPzBMmIjNOXjfOygxxLkyKq09UjMEEUUrDwzz2xxKDaLFMAij1tQfuUnNEEXkOxWAIf2Xp8ZCai4shn6IprI6IA1DEHE9vU0rSIbBsekkTMcQRfzIvFhBMvwHiKWSOiEdQxCxznShhchw1mtpJUzLEEU05/gLkaH9PH480jIEEXuNHTnAsNB8aeBMegnTM0QRjTlhYFho7aHDPH480jMEETfg2B4YFlifZkazgoQKDFHEVXA9YFhg/dJVEEVlTAEFhiDixBqDYWGNLRprVSRUYYgiPh6JnCuo8eFyY1eM9VU2Z6gwBBFL+8PQhy+gMf6O8DZrS0VKqDBEEe+rBoYFNE+zo3qFtaUiJZQYgogtU6H7UEBzbb37d6pJqMZw8NuMFYFrLqD50oltDi9Ek6DGECkCCmjOG6BGUJXh4A/xmgX03oKxt6hk6aDKEOtiIb17UmkJTSgzRI9aQO8PqUwKcMFwVAG9A041QZoAFwxBxIJ5j08lUoE7hgWzFoNKpAJ3DAtmPQ2VSAXuGBbMmigqkQrcMSyYdW1UIhW4YQhNYoGsTVRuDAFuGIKIBbK+lMqjBJcMC2SNMJVHCS4ZFsg6byqPElwxhF5NQazVd9GjcckQRCyI/RZUGjW4ZVgQe2aoNGpwy7Ag9j1RadTgjiFO2OR/75qb1tAtQzTT/O8/pLIowjXDAthDSmVRhEuGYKZ53wfszkjdMgQR876Xm0qiCvcM874fn0qiCrcMwUzz/E0Fl0bqmiGKmN/vYlA5lOGaIYiY12+buJXQPUMQMa/fp6FSqMM9Qxhg5PEbQ66GFQbcM0QR8/edKCqDC2TAEEXM17e+3EuYCUMUMV/fa6MSuEEmDEHEPH1zLwMJM2KIIubnu4l0f1fIiCGImJdvX2YiYWYMsWOTj++X0t3dITOG0LHJwzdoXXdnDGTGELd95fw7wo7771IjQ4bobHL9LWi6s1tkyhCcTY6/552RmwFkyhD3mOb0m+xO23zTImOGhj/N4Xf16a7ukTlD8Kc5PBshMz+KyJwh7sDM2fkWzptg0yILhkZVzM0ZJRlXQkA2DLEq5uacGbpfRsiKIVTFnJwVlHklBGTFECnm4LynrAhmyRAbfs/P7Mq0qSdkyRAdqsfnrmXhRg1kyxD74J6enZdhf9tC1gwNit6df5g1QQ0MDYpenWGZPUEdDJGiV+eQ/iPdIgvoYPhPUBRPzpIFmGfcZwMNDIEgLp7Xfx4wY+s1UNTAkLG5vdi10n2mM4ud7D2XXY8NoYVhyaOHjJPxtZ7LzbrnTb/H/UvtJGhgCEOM+y69PtEolLaz1aHDe0+ajwcpQoenwc00TZvfw2LpOh+fsXObI5FfgbHSPTKHDoa3MHYkEplxxOBQ1dHZKrcbFoBmVUksFiupsiUHCLd2dph7jH0XYIQY3qS+98cZOhiCiA39UIEOtxiFa1i6rMaeY2qEa5YtbTBqIKu9iPX5EWBLd8gCmhiamy+3XTFkjDUvWJhUHdNi0cIFzaaB+h42fHLoStxpKplCC0MYJp4xC3XWPAA91jx7TmuiW02FUOuc2cSPrR9jWkCPdCxVFtDCEESM/tooVST4z6VGMX0tU6dVyiOOVAhUTpvaYtona/CTp8JdB+JYqiyghyEMhOfyD7kHPzI5Rovq6idNtnGsCQhOnlRfV0SetuWSyPAUHm6vAXoYgogxsdE7Euqks6V9VePG+ycEnN1OODDBP35cFcnHJh6wHkjwMkTQ1bOCJoYwvHhaHiL+eLFZZujvlJaN9o8pLk+kGS4vHuMfXVZqbSnecadccwfUvieQHpoYgogl4lw3AwMnm6nkoGXR0GHD/SNGFgeCoVAoGCgeOcI/fNjQIq4doHuF/AVDkHAN2C1dOzvoYghdN+vYZRPhwyvMGpkWbX3/kuiUBmy/kZ8JdDEEEYvEMUMCoYVrdhALR5x58KfJjWdwlS4JdTJkXbatw/a73v+NOdpLQuy9I/8qDrOLw54zuiTUxxBa/e74qiRjz49+duHK4r2vtexkbGXLwRO/WXf59i8+59iUBNs1DJsI2hiiiOPjB/mZY2SvhmETQR9DELHlHiphlgj9FjpwdNmsoY8hiBi9zO1uHj/XxAXO89NeIpvnaplHNKGRIXTdJooFfX1OY0AH4JSOOK32kkYJdTJEEU9yEXHdqd0khR1onkOss9y+XqOEWhmCiAfFeQM0XRotSkXzw9v6Gkqo0y1e3YcP6JRQK0MQ0dfO+5bywoVobGfdsH9798qDw+9ADF/x6rqufz/RXEQDQhPi1X3/Xp0S6mU4BAZR/AMvrhcuCAl3aZVQL0MQMXaJDyJcrj6xJEw6wTA76GUIg6h98kFKLiAmhj9yuVc7HfQyBBFL6HOnLrfRCgmLy/RKqJshDKLO8ekMV9tohYQf6JgFlqGZIYhYdCeVNfIulV4BQsJGPHCYrqUH+hmy03wk/JJReCUICR8t0jR5IaCbIQ6i+LmuyeeXO0FI2PRLCNGlNEE3QxTxF3wknHwIvQP4bvvIx9ol1M8QRNwpjr5WFZH366brl1A/QxTxHbn/rQB+xljkJf0SesAQR8LilCG15Qr8WPTAfgjQZbRBP0MQMfoKF1Gp6yaORb+YyR7RdPCAIQyiasUgSqXrtozSzjoNAbqIPnjAEEUUJ7wriLiJkkZe9EJCTxiCiEPF4uj0IvK3AeVPQoAuoRFeMAQRfaKFS9v/7qOEkdc9kdAbhjASPsgXD6Xtf/P5pyD6XbqATnjCEESMieP70vS/xfzTrzxoCxHeMISRcB1/nZim/80lDH0XApRdK7xhiCJ+TEVP3XUTEj7ikYReMcTpDN7/nkdkbCFmgeshQJn1wiOGKKL4oFSfScYOQsLHvJLQM4Yg4tsK/W8xhTiFsVspq2Z4xRBFFIMox/63GPlucTqvOHt4xvAolN9u/jsOQsJjEKCMuuEZQxCxTbxOdOi6CQn3uP4Kmzq8Y/gWY/Vp+t9i/ul5CFA27fCOIYjYvYUY2IsoJJysa3WQHTxlaJ1LbCuikLACApRJPzxkeBNjpakGUULC/g0eSuglQxSxmkjYiSgkbNe2OsgOXjIEEcUgKllEISHuddO0OsgOXjIEEaPmmW2AJBHFNplfeyqhtwxHMTZ2BvFIFFH0SBvneiqhtwxBRJ9YWGuM4QWsNXC79C3wsoW3DIcwtttak2lt9ZK2GqKEuhZ42cJbhiBi7A2igpi5FRfNdrVbO8DCv/VYQq8ZwiCqdw+RscVTzR5L6DVDbBPn89feNmiaDwkoqUfwmiG0ib56eY17HALHYl52Zwx4zdDYsP8OP7wlATOQoMblT7bwnCFWxejT1vfrJIzsAoJaV5bYwXuGSJGtPJYkY/lx3NLuOcFcMMSuDWO1xwZkHQMfv4cNh9cmCsgFw8HBe5FjtPmVi43IMth//PQpjPHayRjIDcPBwc8ZjOLhbTvIkSuGZKsWvk/RniN3DAH/8Z//hZXvv//nfykiF8gpwzxgcPD/AB/JgOACC/NNAAAAAElFTkSuQmCC;fillColor=#f5f5f5;fontColor=#000000;strokeColor=#666666;" parent="1" vertex="1">
          <mxGeometry x="860" y="690" width="36.89" height="40" as="geometry" />
        </mxCell>
        <mxCell id="sCURncKMLSgWhhkJFP17-10" value="" style="shape=image;verticalLabelPosition=bottom;labelBackgroundColor=default;verticalAlign=top;aspect=fixed;imageAspect=0;image=data:image/png,iVBORw0KGgoAAAANSUhEUgAAAOEAAAD0CAMAAABadrFgAAAABGdBTUEAALGeYUxB9wAAACBjSFJNAACHEAAAjBIAAP1NAACBPgAAWesAARIPAAA85gAAGc66ySIyAAABI2lDQ1BJQ0MgUHJvZmlsZQAAKM9jYGAycHRxcmUSYGDIzSspCnJ3UoiIjFJgP8/AxsDMAAaJycUFjgEBPiB2Xn5eKgMqYGRg+HYNRDIwXNYFmcVAGuBKLigqAdJ/gNgoJbU4GWikAZCdXV5SABRnnANkiyRlg9kbQOyikCBnIPsIkM2XDmFfAbGTIOwnIHYR0BNA9heQ+nQwm4kDbA6ELQNil6RWgOxlcM4vqCzKTM8oUTC0tLRUcEzJT0pVCK4sLknNLVbwzEvOLyrIL0osSU0BqoW4DwwEIQpBIaYB1GihyUBlAIoHCOtzIDh8GcXOIMQQILm0qAwWF0zGhPkIM+ZIMDD4L2VgYPmDEDPpZWBYoMPAwD8VIaZmyMAgoM/AsG8OAMKzT/6r/s5/AAAC01BMVEWcPEuAAxecO0qWMECLGSudPUyBBBiJCx+bOkmFCBy2NUbaWGbJSFeZNUWNDyLMSlrjYG6OHzGCBBibHC/ZV2WKDSCDBhqvL0DfXGuICh7HRVXhX22ULD2UFinWVGKBBRmrLD3cWmiFBxvCQVHhXmyYM0OQEiXRT16NHS+gITOEBxuyMkPgXWyaN0eLDSHHRlbiX22VFynYVmSDBhmoKDrgXWuHCR2XMkLTUWCeHzGHESSiIzXcWWjdW2mOECO5OUnGRVWMDiGeHzKQIzWcHS/eW2mOECSqKzzdWmmMDiKaOEi+PU7GRVSLDiGVLT6CBRmlJjfeW2q7O0vPTVzaV2a1NUWfIDLVU2HeXGquLkCbOUmHCh29PU2XMUGREybPTV2hIjSxZXGkTFqZNkaQJDWJFSiDCh6ABBiFCBu3NkeCCByYGiyxMUK8PEywMEHZVmWSFCeqKjyYNESNDyPMS1qEBxqMDyKJDB+UFijYVWTbWGeSKDmXGCvfXGrBQFCGECOjJDa6OkqzM0StLj+PESSfITPSUF+kJTeTKjuKDCDAP0+RJTaZGy3XVWTKSFiKFyrOTFyGCBynJzmWLz+GCRzFRFSWFyqICx6mJjiGDyLIRlbHRlXIR1atLT6dHjGXGSvLSVmCBxuVFyrDQlLEQlK/Pk6jIzW3cXy4N0jOTFu3cHu4OEi2NkePITPLSlmcHjC0NEWtLT+7OkuwYm+mJziYGSyTKTrNTFuWGCqsLT7XVGO/Pk+pKTu/gIrEQ1PUUmGvYG2lJjifQVCZGi2PIjTWVGOTFSjQTl2dHjCaGy6+PU21NUa5dYC2NkanUl+fQlHKSVjQT12IFCeFDSHQTl7JR1ecHTC9PEy+foibHS+LGiy2bnqTFSeFDiGnKDm9fYerKz22b3uyZnLbWWevYW7XVWO8e4W0NES4cn2VFimOIDKHEiWmJzm7eYS1bHiSJzgAAAAMwsWCAAAA8XRSTlP///////////////////////////////////////////////////////////////////////////////////////////////////////////////////////////////////////////////////////////////////////////////////////////////////////////////////////////////////////////////////////////////////////////////////////////////////////////////////////////////8AqQpnpAAAAAlwSFlzAAAuIgAALiIBquLdkgAAF9VJREFUeF7dnfmfFMX5x/NoMsgRbJdwrhAWNihCZDiWsLIcGsA1SBZYQFYQUZTjy7KAICKCcgmREGKMBEzkMIrRxAAxGuMRyaWGnCZqTjXmvpP5E77PU/30TFXPTHdVd1VvXnn/NNNH1fOZrq56quqpmncV/tdxrPBdAHAOf67AOXja9W/sNv1zUQHAu/lbGe8Wp8/lb45wqfA9aH6uS67qU8QnKE7De/iAExwqPA9t79qtew/UwEdCoMAe3bt1xcvO4yMucKfwvWh5z/M9z+tSXWEXPH1+T7zwvXzIAc4UXgBQ0+t9qMDrXV1hbzr/vl41ABfwMfs4UkivYJ++/UhArEKvX98+eLmrl9GNQmoF+g+oFfbHK/RqB/THGyJalTQ4UXgh2jtwkG+9jkLPGzQQb7mQj9vFhcL3YyU5uI5t11Po1Q3GKvf9fMIq9hVSCR0ytJ4tR7QUevVDh7gpqdYVfgDtHHYRmy3QU+h5Fw3DWz/A5+xhW+HFWEKHd2ebfXQVet2HY0m9mE9aw65CKqGXjBjJFjPaCr2RIy6xX1KtKvwg2nfpqDzbG6Cv0MuPuhST+CCft4NNhdhI5EaPYWNLGCj0vDGjsaRabTbsKSQ3Zuy4BrZUwkih1zBuLCZk0cGxppB6EuOHhksoYabQyw8dj0nZ623YUvghtGrYBDaS6NfIH7QUNvourM8EajY+xBelxpLCy7AnMbGJLSQmTc7xJy2FucmT+BPRNBF7G5fxVWmxopBGY4ZMkV/BqZeDmUK4fCp/JBqmkINj59e3kYrf15VewYYr8IihQoArpJ8ob69fbEHhh1HNNLmRmD4DrTNXCDOm8zdizDQ89mG+Mg2pFYq+7pVyCW2+isxNoBCuauavRMOVdvrFaRV+BK3oPZONElw9S1ibRCHMupq/C2binfARvjgxKRV+FG0YKDcSDY3CVCSJQoBGuTRMoH7xR/nqpKRSSCW0ZfYctoeYNFnYSSRTCEqzMWd2Cx5KV1LTKKSexPi5Ul+XGokiCRWqzUb9XHJwUvU2UiikRmJGq9xIFEsokVShWlLzrVQxp2k2kiukvm7jPDaEaC6VUCK5Qpgs16nzGvFkin5xYoVoSJ/5sjcZ1KEBKRSqdWq/+dRs8D3mJFRIPYnecl+3doEwTSKNQoAFPNhK5EdhEol7G8kU0oBor2vYAGIhdQdU0imEYQv5FHFNLzySsF+cRCE1EjVtsos1ibzIECkVQk+52Zjehr2NZM1GAoXXYl6LFst93WapkSiSViFcLtc3+cWL8NC1fKcJ5gqvw5yWXM8ZC8J1jE9qhSEf7voleOg6vtUAU4XCjVkq93WnK61gibDCG25cdtPNy1esWH7zTctuvIGOxCnEllF+FZqWJnJwDBVSX3flKnlAdIDfkyhHVvh/fEwBD8YphKsG8AXEyFUr8ZDpMzG7nl7BWXJfN0993crICqsRqxD7xXJu59P7YPgyGim8AO1erfR1yxuJIorC0bPb10xtHdTUkM83NA1qnbqmffZoPKyhEIYp/eLVeKXZfLGJQsyupUNupqqWUEJRuJY/S6zFwzoK1ZK6sINeRjZIC32FoicRzOsKJgoDqmFNIcBEvoqoHWDY29BWSI2E0tftt07kXhWLCmGdMpxK/WL9ZkNTITUSufXqgKjIuzo2Far94qb1dLlus6GnkBztlUpft6Ibo2BVoerg1M+lZkPTFddSeAumt2EjJy+o7MYo2FUYcnA2bsBDt7B50egoxL5uTS95XndOFTdGwbJCdHDkAaHuFGak1S+OV0huzK0dshvTvMnPMhrrCmGTXFJHdtyKhzQeUOwl5MbcpszrapRQwr5CtaTmR92Gh+IdnDiFNK+7+XZOlFioU0IJBwqxpMoOx+2b8bbYfnG0QtGTuFIu/80V+rqVcaIQesoldc6VGr2NSIXkxnSVg390SyjhRqFaUuuHUnRqtIMTpdAP/pFewX66JZRwpBBLquTg5OPDjCIUUk9i6RZOioh1YxScKVQdnC1L8d6o3kZVhdRIXDLfzI1RcKcw5ODMpzCj6k+q2plllJDcbTF5BQUOFYYcnAH00y9jw8uoovAOtHCr3EhsM3kFBS4V4su4je8kbt+K99/BpoepqJBKaJ9xshszifxAM9wqhA3yyzhyHA38V35alY6SG9PlTtmNkWfNdHGsUJ2Fy9/ZBQ9VdHAqKDwXrVsn93XNSyjhWmGopE5Yh2lUWn5TrvAudGO2l2KYsQ41L6GEe4WwQa5T67ajg3MXi5AIKyQ/resO+RU0rUMDMlCo1qkjd5CDU+bDhRSSn7ZhY1I3RiELhSEHR/SLwz6cqpAENsrWmLkxCtkoVB2ctfQ8QhJVhWjXYCX4J0EdGpCRQtXBaaBFDSyGURWeB7CTryWSvoKCrBSqL+POshGq8DOs2aWMV0QNaseQlUIlVGzkrprYZ5hbKsdXTN/N6ZiTkcLd8rTGPOpoRD5DMTC6W46RGXm3n5A52Si8Wypy+VZ6HuFh1JBC4ZJ2nSuX1CQeG5GFQsVzGzmX2sOwoDKF/tCM4tNMStYkZqCwUW4phE9TYdCmTKHvly7Zw/cJEtWpzhWqncQ9SzANPb/U71v0nyn3LZLUqa4VKnVofiat0dTtW/gv49i98oxWtXCECBwrVIIY+u2lZSgVtVRWWCh8DG/YLPegzEuqU4VqCZ2wGQ99jE0PU0WhWKR1zz6lpBrWqS4VqsFE++7BQ1WXg1VTKOrUsbvkkmo4kuFQoTKC0W9X9EKpqgoLhY+jlfs/wekQZn19dwqVvv0n9uO9H2eTKxGh0C+pB+SSavIyulKovIL5A5EllIhS6I+5KWGy+hMzrhQqUzN+cG2khmiFhcIn0dJp8vSv9uSaI4XK9Fp3WlfzSTa1GjEKxdj3rHuTlFQXCtUSei9ZUnWsOyBOoRjYGNJNmb/QK6kOFColtL6b3gL+WIW+K94oh9LolVT7CpUS2tSoGYsZr9BfH7pbI2ZWxbZC1Y25nrqCWutMdRQKV/xTO5SSGh+OYVmhEohRv+NTeEgvDFNLoSipNffJJTU+pMauQiWYpuk+g7h2PYWFwqcxyc1GnUabCkNdQXK0P82GxaKrUIzg3H/QYE7YokJ1zvfg/XhIf32JtkIRQJtrk/OKHhC3p1AZ1m5uo2vZJB0MFNKCXxgtr5Tp9xlhQWWsKfyM7DZeQ8HTRsuDTRSKGMVDV8thwoeFDRWxpfAwX0LUXn0Ij+jFJAaYKHxA5NinTe68fLZqp9GOwg2f5SuIbW3kaAM8wAZpYaAQBVI4IORWa4UwWFGoBiRQoL4wwkSiUU2z7nNipT3MelB2xasMGVtQqE7VP+g3TzM+t85VTQNwxNtylNra0D5ClYc30itUwy3E/kNQc3SLd8SRQkx+gOc1iAgkyA2XF5ZULKmpFSoldAztIUVRWg2eNwA/sFEamCg8Ru19/rhfWJY86GftU8HBSalQdWMepIVrePA4vR71x1wp7PBzu72XsGfIlGgHJ51C1Y0RW51ArhdXcR1OFD4EEDy1be00fge5vfLwxiS/EiqRSuEM+RXsvlecHtseFNsHAR5is+LRVgjw+eIzyz9MW3LRQkupThVbtkikUahs5CKWVgJc+nAxs/rPGzxEA4VHOH1iDy09Rld8sVxS1WYjuUJ1V4XF5GgD9JI7Nia1qa7CiwEe4eQFC9fTIAK0zFZccXlOPLHC3YqjLXbGgJb18giG94jBHgS6CgF6qnsF5k9QrFwoAm6kVFKTKrxCbmpFtBpAlxOyi4FvZk/9h6iv8FFOvcgeWgyAuSvzN6UlickUKosN8/v8X1HtehOPWlf4BYDHOPESzYdFCepzWA4y8rdQQhIpVDZSajgsHO2Ww/Kb4PMYwBfYtDg0Fd4FoKzs8qmf6dcCSqcx2OEkiUJl/x3RFcTabKZcmzEbK4YhVkRTIXrdQT6NUob+YgC0VNlsz69TzRWqjvZQui+0HKI+2OauXt/71lY4m9N+HIYprfF2YVyw77OP2ETCWKGyTYS/PzTktitexTB4nD/OtqzwiwBf4qSfCHlUDYt9UwKPSkCj4qYK1SVNvmfYZ3E4jvAJ/vwlgC+ycTHoKfwywHFOmnZpUb3ie/265dKTckm9epaZQnXO5aTvM824lw8IhHe/gL8cB/gyGxeDnkIUFTw3Wkkd6tmspWgy/MFXKT/4Jv6gpVAZ0W5Y5ReLpfJd3EMbz1+bUS4bF4OuwlOc8h6RT6h32nDaH944Ja8hKg5S6yiUR7S3nBI/2K2n5R+s2MsOmsZTthV+hRN+kjOqPMKwSXbFA3QUlshf70+JVBspeZKPfMWqwq8CLOaEn+KMEKXxGvO0+OG7PlbeeBkprH+Mwu8g97Q8hiBvIvYUH1sM8FU2LxothV8DeIYT/jpnRChbcjU86zsgC+SgP4GJwroFvpv0rPJKy2PrX+eDzwB8jc2LRkshwKHAbtrpp4haAQ6g0VpqovlAgIFCdiAODVCrZXGQWcRH6zA3Ni8aTYVbOd2goglQSupzvit+/xp5VNxAYe0a4QTmNj/HBwh1mzskqGq22lW4l5N9nrMposyaTB8syljNC0pJ1VVY94IYqWwZLHvf5bM/z/OZvRYVfgNgBCc7grMpoXbIX/Sby9Fn+AChqfCM72iPf7H6sIFAMuUbbGAkOgq/CRDsUPotzkZG3ZDT3/Fk/KiSnVoK60f5v43SoS4rocS3+ORMgG+ygZHoKPx2yWf7DmejoHTqmsUMNNR0FA/qKJze4d91n1w9F7uaCt/hs+i3fZsNjERH4XcBgne/ciiNEq5bu8N/Gltf4gMaCl/CagMZv0Ouo6oEJvfk088BfJcNjERHIcBtQe0tfulyQq64PyDVZZRvb6zC2lFisAJ2lzvaFajh8/nb9KoaPYUvc6qvcC7lKH2fuml+u90hOo1xCvt1+L7CNLkGjohKeoUvedmmwu9xojQnUgUlIqt2p/C9as6SshiFa8+KgtF1p1JCIyLLgrGq79lUGMw0f58zqYRaUjf6Jm46UButsPaA72j31N/g5/t80WGbCts40R9wJpVRt8iZJh7NkF0DaZOVKgpvG7hLzLnUKBGeMdFIP+DL2qwp/CHAjzjRXZxJFdR+7E7RaYQW0lBF4RDxvsKtOxVHOyaibBdf9yOAH7KJUWgorNx3qohSUmt7UPkUtMrr4Zh5rXwSeveQX8HIEkoY9p80FP4Y4EVONH4hm1JSn9vvty6t84o1bV1xzH4hS6zZLzvaGltQ3c2XvgjwYzYxCg2FPwF4lRPdz5lEoJTUhd0ISeAq2FwcdkSJ4rTczuhsQbWfr30V4CdsYhQaCm8pNUEUMheHWqfWLyT4i9cd37tgtAwlEsqYQGwJJTbzxdg468QOaSi8AyDoKuitKFVccYX1dPpO/lJGRUe7nN18+Znqu33IaCi8uFQV+sOYscyQX0aJn/qn1Wm6InMqOtrlXMrXY2WsM4moofBnAEHsrDKGEYHyMhap591O1/F3Fb1d4JBgHKMJ4GdsYhQaCl8DCMZ/RfOsg/oy+gQCsdtRYcxR6xUUDOE7tgG8xiZGoaHwIYCgOvAbaC0aw4+xJBBgWHjMsVnvFRS08D31ehEZGgpXAAS/uRhp0iT0GF+VBKLEoP3x0X+ASDAhkgdYwSZGoaEQE+U0PT8LXRrn05/lEq9PKduvduKU1/nk+fMNHiDB95E1bGIU7p6hINeykuBvIcSpFvM02Rh7zzDZe+gO++9hkrrUJfbr0gTtoVPst4fmPo1b7Ps0xn6pY+z7pYZ9C+fY71uY9Q/dY79/aNTHzwD7fXyDcZpMsD9Ooz/Wlg32x9q0x0szwv54qeaYd2Y4GfPWmLfIDifzFvFzTxniZO4pbv4wS1zMH8bOAWeKiznguHn8bHExjx8Ti5ExLmIxIuNpMsdFPA1WNVVjorLHRUwUKqwW19YJOIprqxyb2Bm4iU2sEl/aKbiJL/1v6j8Z9p00FWIxLYvz7izcxHmjwnCsfqfhLFY/tN6i03C13iK0ZqYTcbVmRl331Jm4WveExbS0dq1TcbV2DRUW1x926vxTcd7J+vpDaQ1pp7aIQWtofw2ptA4Ym9rOI3A87K8DxmIarOW+hjPrFIIFx/bXcqPC4nr8ThzaDwb0XazHl/ZUwIq6swiaLBd7KuBDDPbFeJ2z6wSC8A0X+2KgwuLeJp1WTINC6mZvE2l/mimcYeZMYQPc7E+DD5H3GPImcIaZE6yJcrPHECoU+0QRndToB829u32iinMid/o5Zk0Qeutqry+pNp1E24Rnzj3BYk5X+7WhwnVBo7+TM82U4H+aujvbc+8BgBOcSafMsgWzaiec7ZuID3E7Z+KN41wzZBxn7W03eoSGChcFw6ZvcLYZ8gZn/cwidwovBGjnbLzhnG9mDOeMvXaNf6qWMVGID/HlIIYv8ymaYEJmrebkdhEjha8B7OCMaBY9S4JIAm+HXlRpCSOF+BB/HqyH+QVnnRG/4Gwbfm74CI0Vltb0ZBqnGMQjCneKjdHETCFKXMpZeVP9vLOhuHHDUlOB5gpzxe0TDdcQpCHYxMx7JOda4TlSq7+Rs8+A4jJobO3j/7NDxVAhPsSWhzk3mknPhiCKwHu4xfgRGiu8Ft/EIEBqkNg02T2XDOIM8/gW6v2phYSpQqpO93GGWYWbBgGl3j78wmboY6zwlwCnin/l4e9/65glnJnXdArgl2yGPsYK6SEGw5be+b4NbgmWh4mBWjbCAHOFKHFgcZucDCqbYjUzYWASgUkULpfeDPfltFhG6a1fziaYkEAhPsQuBzlX9+W0WEYPdkn0CBMpvAPg7uJeMmIBujvWczZe3d16i4DKSKKQKpsgYN7zfuWb4oZfcSb+MgHO3oxEClHi5B6cs9eQ/A/mY5lc3LugB+bCmRuSTOGv0bMpllOHYzbB2IxXh97MrzlzQ5IppHJa+pv5vr459unLGfgDtJy1KQkVomfTO1ju5Sw2Ooh39rwXeyfxZnwSKqT/fjpb2h7PSVex2Cn0Jpw1/I8nmaQKqZyOK+1h8rRvlE2e5qSxLqPxZ87WnMQKSeJpNgGxPvRWHFzzvNP4lTNNQHKFv0HXJhjExK6bsilEeoaVNgd5Hp2Z33CmCUiukFybN4vVubKxR3qkrUHeeDOhM8OkUFh4C32OYEIInyJaYos3S0/wFfSZ3uIME5FGIb2KE4MdLpFjvnnpOcYJIi/RliGcXTJSKSSJb0u7lB8V9qXmKCeHbHkbv3NmCUmn8LeY/zvS/qyzhYUpCSJZkenv4PffcmYJSaew8Du04FlpwzULDlzJVfMWPovff8dZJSWlwsLv0YYj0lM8kHJjid0HOCFk+hE88HvOKDFpFdJqE3jnD2wTUp/Kg5P/AOUPVET1Vo1EkVph4Y9ox7g/sVVEX/GfZUkYK5VQ70/kq/2RM0lBeoWFG9CSR+Wt5s+go5yEs/Iu4Bc9ikdu4CzSYEEh+W8wrdjnJ7rp7i4nsakb3yzoMQ0PpfDVSthQWPgzWvNyyUdF5rRV2f2qGivblJ0InydP/s+cfDqsKBRN/6G/yP/M4j3n/xuEHn2elfcw9bb9hf5mgZNOiyWFFMQAT5WcVOKaDs3lmIs65H/EQleUYh/NwhEisKWQVmHCVqWket7aJ0P/iViJK54MbTL8PG3Qrrd6UgdrCgt/RbtWHpGrQ+Jku/+/HlU41H6SLww4c4Te4L9yohawp1Bszgerg5X7JR5/YkHF4rpowRPBKqYSM1fjGZ2t9LSxqbBwHVqXeypYxyez58SIt4/+bXL/Prlcn/6T/3b07REnyv7xDzn+FO0xeB0nZwerCkWdCpf3rWS8Bnv6iv/r4KRsYVkhBWsALNkZfh01OLNTzNSZhlrEYlthofB3obFdbTlieaVd6Ps7J2IR+woLhcvI1lkvHCwNtsSQP/iC2KL1Mk7AKi4UFgr/IHvh7PxWlhBJ63zfU/8H32wZNwrF2mhk5dHTJ6UeXzn1J08f9T1YzXXL5rhSiAjDAd7855STyv8/BdSdnPLPYASSb3GBQ4V++yjocmx2+5qprYOaGvL5hqZBrVPXtM8+5v+5DGK3/QvjVCHyr7dYRhXe+hdf6AzXCol//4flhPjPv/kCp2Sh0OeGG5fddPPyFSuW33zTshttDE9oUSj8P5+t8e8J0ErVAAAAAElFTkSuQmCC;fillColor=#f5f5f5;fontColor=#000000;strokeColor=#666666;" parent="1" vertex="1">
          <mxGeometry x="940" y="690" width="36.89" height="40" as="geometry" />
        </mxCell>
        <mxCell id="sCURncKMLSgWhhkJFP17-11" value="Commodities and Trade Goods" style="rounded=0;whiteSpace=wrap;html=1;fontSize=20;spacing=0;spacingLeft=5;spacingRight=5;fontStyle=0;fontFamily=Droid Serif;fontSource=https%3A%2F%2Ffonts.googleapis.com%2Fcss%3Ffamily%3DDroid%2BSerif;align=center;fillColor=#f5f5f5;fontColor=#000000;strokeColor=#666666;" parent="1" vertex="1">
          <mxGeometry x="690" y="1230" width="310" height="30" as="geometry" />
        </mxCell>
        <mxCell id="sCURncKMLSgWhhkJFP17-12" value="Replenish your &lt;b&gt;commodities&lt;/b&gt; using the &lt;b&gt;Trade strategy card&lt;/b&gt;." style="rounded=0;whiteSpace=wrap;html=1;fontSize=15;align=left;verticalAlign=middle;spacing=0;spacingLeft=5;spacingRight=5;fontFamily=Droid Serif;fontSource=https%3A%2F%2Ffonts.googleapis.com%2Fcss%3Ffamily%3DDroid%2BSerif;fillColor=#f5f5f5;fontColor=#000000;strokeColor=#666666;" parent="1" vertex="1">
          <mxGeometry x="690" y="1260" width="310" height="50" as="geometry" />
        </mxCell>
        <mxCell id="sCURncKMLSgWhhkJFP17-13" value="&lt;div&gt;Give commodities to another player as part of a &lt;b&gt;transaction&lt;/b&gt; to convert them into&amp;nbsp;&lt;b&gt;trade goods&lt;/b&gt;, which can be spent for 1 resource or 1 influence.&lt;/div&gt;" style="rounded=0;whiteSpace=wrap;html=1;fontSize=15;align=left;verticalAlign=middle;spacing=0;spacingLeft=5;spacingRight=5;fontFamily=Droid Serif;fontSource=https%3A%2F%2Ffonts.googleapis.com%2Fcss%3Ffamily%3DDroid%2BSerif;fillColor=#f5f5f5;fontColor=#000000;strokeColor=#666666;" parent="1" vertex="1">
          <mxGeometry x="690" y="1310" width="310" height="90" as="geometry" />
        </mxCell>
        <mxCell id="58A0OdouIKyHpeHtFoFQ-1" value="&lt;b&gt;Public objectives&lt;/b&gt; can only be scored during the status phase." style="rounded=0;whiteSpace=wrap;html=1;fontSize=15;align=left;verticalAlign=middle;spacing=0;spacingLeft=5;spacingRight=5;fontFamily=Droid Serif;fontSource=https%3A%2F%2Ffonts.googleapis.com%2Fcss%3Ffamily%3DDroid%2BSerif;fillColor=#f5f5f5;fontColor=#000000;strokeColor=#666666;" parent="1" vertex="1">
          <mxGeometry x="350" y="1230" width="310" height="50" as="geometry" />
        </mxCell>
      </root>
    </mxGraphModel>
  </diagram>
</mxfile>
